<?xml version="1.0" encoding="UTF-8"?>
<!DOCTYPE svg PUBLIC "-//W3C//DTD SVG 1.1//EN" "http://www.w3.org/Graphics/SVG/1.1/DTD/svg11.dtd">
<svg xmlns="http://www.w3.org/2000/svg" version="1.1" width="256px" height="256px" style="shape-rendering:geometricPrecision; text-rendering:geometricPrecision; image-rendering:optimizeQuality; fill-rule:evenodd; clip-rule:evenodd" xmlns:xlink="http://www.w3.org/1999/xlink">
<g><path style="opacity:1" fill="#001822" d="M -0.5,-0.5 C 84.8333,-0.5 170.167,-0.5 255.5,-0.5C 255.5,84.8333 255.5,170.167 255.5,255.5C 170.167,255.5 84.8333,255.5 -0.5,255.5C -0.5,170.167 -0.5,84.8333 -0.5,-0.5 Z"/></g>
<g><path style="opacity:1" fill="#2094a9" d="M 138.5,90.5 C 137.18,87.1013 137.18,83.6013 138.5,80C 137.12,78.6764 136.786,77.3431 137.5,76C 136,74.5 134.5,73 133,71.5C 132.828,78.346 132.328,85.0126 131.5,91.5C 131.334,82.4938 131.5,73.4938 132,64.5C 133.555,62.4848 135.389,62.1515 137.5,63.5C 142.475,70.3096 147.642,76.9762 153,83.5C 155.434,91.3707 154.434,98.7041 150,105.5C 149.818,99.1031 149.152,92.7697 148,86.5C 145.831,82.8095 142.664,81.1429 138.5,81.5C 138.5,84.5 138.5,87.5 138.5,90.5 Z"/></g>
<g><path style="opacity:1" fill="#37a19d" d="M 138.5,90.5 C 138.828,101.346 138.494,112.013 137.5,122.5C 137.666,115.492 137.5,108.492 137,101.5C 135.89,99.6031 135.724,97.7698 136.5,96C 135.5,95 134.5,94 133.5,93C 129.848,92.5014 126.182,92.3347 122.5,92.5C 125.287,91.5233 128.287,91.19 131.5,91.5C 132.328,85.0126 132.828,78.346 133,71.5C 134.5,73 136,74.5 137.5,76C 136.786,77.3431 137.12,78.6764 138.5,80C 137.18,83.6013 137.18,87.1013 138.5,90.5 Z"/></g>
<g><path style="opacity:1" fill="#4ab098" d="M 122.5,92.5 C 126.182,92.3347 129.848,92.5014 133.5,93C 134.5,94 135.5,95 136.5,96C 135.724,97.7698 135.89,99.6031 137,101.5C 137.5,108.492 137.666,115.492 137.5,122.5C 137.737,123.791 137.404,124.791 136.5,125.5C 136.082,124.778 135.416,124.278 134.5,124C 135.634,122.984 135.301,122.317 133.5,122C 134.634,120.984 134.301,120.317 132.5,120C 133.634,118.984 133.301,118.317 131.5,118C 131.833,117.667 132.167,117.333 132.5,117C 129.83,115.164 128.163,112.664 127.5,109.5C 129.167,109.5 130.833,109.5 132.5,109.5C 132.5,105.5 132.5,101.5 132.5,97.5C 129.167,97.5 125.833,97.5 122.5,97.5C 120.246,96.8763 118.579,95.543 117.5,93.5C 119.042,92.6993 120.708,92.366 122.5,92.5 Z"/></g>
<g><path style="opacity:1" fill="#62b077" d="M 117.5,93.5 C 118.579,95.543 120.246,96.8763 122.5,97.5C 122.5,97.8333 122.5,98.1667 122.5,98.5C 116.119,100.205 111.119,103.872 107.5,109.5C 106.928,107.745 106.094,106.078 105,104.5C 104.617,105.056 104.117,105.389 103.5,105.5C 106.619,99.7163 111.285,95.7163 117.5,93.5 Z"/></g>
<g><path style="opacity:1" fill="#1f5b59" d="M 122.5,98.5 C 122.5,98.1667 122.5,97.8333 122.5,97.5C 125.833,97.5 129.167,97.5 132.5,97.5C 132.5,101.5 132.5,105.5 132.5,109.5C 130.833,109.5 129.167,109.5 127.5,109.5C 126.833,109.5 126.167,109.5 125.5,109.5C 127.265,108.539 129.265,108.205 131.5,108.5C 131.5,105.167 131.5,101.833 131.5,98.5C 128.5,98.5 125.5,98.5 122.5,98.5 Z"/></g>
<g><path style="opacity:1" fill="#134a4f" d="M 155.5,109.5 C 153.5,109.5 151.5,109.5 149.5,109.5C 149.819,114.363 149.486,119.03 148.5,123.5C 148.5,118.5 148.5,113.5 148.5,108.5C 151.059,108.198 153.393,108.532 155.5,109.5 Z"/></g>
<g><path style="opacity:1" fill="#60b47f" d="M 125.5,109.5 C 126.167,109.5 126.833,109.5 127.5,109.5C 128.163,112.664 129.83,115.164 132.5,117C 132.167,117.333 131.833,117.667 131.5,118C 133.301,118.317 133.634,118.984 132.5,120C 134.301,120.317 134.634,120.984 133.5,122C 135.301,122.317 135.634,122.984 134.5,124C 135.416,124.278 136.082,124.778 136.5,125.5C 130.303,132.048 124.136,132.048 118,125.5C 114.527,117.187 117.027,111.853 125.5,109.5 Z"/></g>
<g><path style="opacity:1" fill="#38a6a2" d="M 155.5,109.5 C 156.367,118.252 155.034,126.585 151.5,134.5C 150.691,133.531 149.691,132.698 148.5,132C 150.742,130.993 150.408,130.159 147.5,129.5C 147.833,127.5 148.167,125.5 148.5,123.5C 149.486,119.03 149.819,114.363 149.5,109.5C 151.5,109.5 153.5,109.5 155.5,109.5 Z"/></g>
<g><path style="opacity:1" fill="#82bc5d" d="M 107.5,109.5 C 103.437,122.027 106.771,132.027 117.5,139.5C 118.706,141.483 120.039,143.483 121.5,145.5C 120.675,146.386 119.675,146.719 118.5,146.5C 106.397,141.706 100.063,132.706 99.5,119.5C 99.3013,114.28 100.635,109.613 103.5,105.5C 104.117,105.389 104.617,105.056 105,104.5C 106.094,106.078 106.928,107.745 107.5,109.5 Z"/></g>
<g><path style="opacity:1" fill="#49a88e" d="M 147.5,129.5 C 150.408,130.159 150.742,130.993 148.5,132C 149.691,132.698 150.691,133.531 151.5,134.5C 150.164,136.01 148.997,137.677 148,139.5C 147.184,140.823 146.017,141.489 144.5,141.5C 144.475,138.821 143.142,137.488 140.5,137.5C 143.295,135.249 145.628,132.582 147.5,129.5 Z"/></g>
<g><path style="opacity:1" fill="#5eb07d" d="M 140.5,137.5 C 143.142,137.488 144.475,138.821 144.5,141.5C 141.753,144.207 138.42,145.873 134.5,146.5C 133.942,145.21 132.942,144.377 131.5,144C 131.833,143.667 132.167,143.333 132.5,143C 129.305,142.819 126.305,142.319 123.5,141.5C 129.723,142.317 135.39,140.984 140.5,137.5 Z"/></g>
<g><path style="opacity:1" fill="#6eaf65" d="M 117.5,139.5 C 119.5,140.167 121.5,140.833 123.5,141.5C 126.305,142.319 129.305,142.819 132.5,143C 132.167,143.333 131.833,143.667 131.5,144C 132.942,144.377 133.942,145.21 134.5,146.5C 129.194,149.007 123.861,149.007 118.5,146.5C 119.675,146.719 120.675,146.386 121.5,145.5C 120.039,143.483 118.706,141.483 117.5,139.5 Z"/></g>
<g><path style="opacity:1" fill="#527d44" d="M 108.5,160.5 C 109.919,159.549 111.585,159.216 113.5,159.5C 113.784,161.415 113.451,163.081 112.5,164.5C 112.5,163.167 112.5,161.833 112.5,160.5C 111.167,160.5 109.833,160.5 108.5,160.5 Z"/></g>
<g><path style="opacity:1" fill="#446d3f" d="M 117.5,160.5 C 118.919,159.549 120.585,159.216 122.5,159.5C 122.737,160.791 122.404,161.791 121.5,162.5C 120.817,160.824 119.483,160.157 117.5,160.5 Z"/></g>
<g><path style="opacity:1" fill="#527d44" d="M 155.5,160.5 C 157.265,159.539 159.265,159.205 161.5,159.5C 161.737,160.791 161.404,161.791 160.5,162.5C 159.448,160.744 157.781,160.077 155.5,160.5 Z"/></g>
<g><path style="opacity:1" fill="#82b958" d="M 155.5,160.5 C 157.781,160.077 159.448,160.744 160.5,162.5C 159.01,168.793 157.677,175.126 156.5,181.5C 155.076,183.515 154.41,185.848 154.5,188.5C 153.082,190.308 151.082,190.975 148.5,190.5C 150.213,180.316 152.547,170.316 155.5,160.5 Z"/></g>
<g><path style="opacity:1" fill="#81b758" d="M 178.5,163.5 C 178.5,164.833 178.5,166.167 178.5,167.5C 176.833,167.5 175.167,167.5 173.5,167.5C 171.802,164.876 169.969,164.876 168,167.5C 166.986,173.218 165.82,178.885 164.5,184.5C 166.698,184.88 168.365,184.213 169.5,182.5C 171.781,182.077 173.448,182.744 174.5,184.5C 170.226,190.849 165.06,191.849 159,187.5C 158.333,185.5 158.333,183.5 159,181.5C 160.335,176.162 161.669,170.829 163,165.5C 165.956,160.769 170.122,158.936 175.5,160C 176.71,161.039 177.71,162.206 178.5,163.5 Z"/></g>
<g><path style="opacity:1" fill="#85bc59" d="M 96.5,160.5 C 96.17,167.2 96.5033,173.866 97.5,180.5C 98.2975,180.043 98.6309,179.376 98.5,178.5C 101.315,172.202 104.649,166.202 108.5,160.5C 109.833,160.5 111.167,160.5 112.5,160.5C 112.5,161.833 112.5,163.167 112.5,164.5C 110.459,173.336 108.126,182.003 105.5,190.5C 103.712,190.785 102.045,190.452 100.5,189.5C 101.752,187.265 102.252,184.931 102,182.5C 100.295,184.577 99.1283,186.91 98.5,189.5C 96.6208,190.341 94.6208,190.675 92.5,190.5C 92.8174,187.428 92.4841,184.428 91.5,181.5C 90.6143,182.325 90.281,183.325 90.5,184.5C 90.1667,186.5 89.8333,188.5 89.5,190.5C 87.5,190.5 85.5,190.5 83.5,190.5C 86.1046,180.551 88.6046,170.551 91,160.5C 92.9435,159.193 94.7768,159.193 96.5,160.5 Z"/></g>
<g><path style="opacity:1" fill="#6d9e50" d="M 131.5,165.5 C 131.649,164.448 131.483,163.448 131,162.5C 130.228,163.849 129.061,164.682 127.5,165C 126.868,167.415 125.868,169.582 124.5,171.5C 124.9,167.559 126.067,163.893 128,160.5C 129.699,159.594 131.533,159.261 133.5,159.5C 133.405,161.786 132.738,163.786 131.5,165.5 Z"/></g>
<g><path style="opacity:1" fill="#81b858" d="M 117.5,160.5 C 119.483,160.157 120.817,160.824 121.5,162.5C 119.847,169.779 118.513,177.113 117.5,184.5C 120.4,184.592 122.067,183.259 122.5,180.5C 123.768,178.095 124.435,175.428 124.5,172.5C 124.5,172.167 124.5,171.833 124.5,171.5C 125.868,169.582 126.868,167.415 127.5,165C 129.061,164.682 130.228,163.849 131,162.5C 131.483,163.448 131.649,164.448 131.5,165.5C 130.411,172.364 128.577,179.031 126,185.5C 122.938,189.943 118.771,191.443 113.5,190C 111.848,188.53 110.848,186.697 110.5,184.5C 112.064,176.156 114.397,168.156 117.5,160.5 Z"/></g>
<g><path style="opacity:1" fill="#477040" d="M 178.5,163.5 C 179.451,164.919 179.784,166.585 179.5,168.5C 177.265,168.795 175.265,168.461 173.5,167.5C 175.167,167.5 176.833,167.5 178.5,167.5C 178.5,166.167 178.5,164.833 178.5,163.5 Z"/></g>
<g><path style="opacity:1" fill="#80b758" d="M 140.5,159.5 C 144.909,158.618 148.409,159.952 151,163.5C 152.164,166.567 151.164,168.233 148,168.5C 146.145,167.756 144.479,166.756 143,165.5C 141.268,165.734 140.434,166.734 140.5,168.5C 141.774,171.609 143.94,173.942 147,175.5C 148.829,184.178 145.329,189.178 136.5,190.5C 131.869,189.863 129.869,187.196 130.5,182.5C 133.361,182.342 136.028,183.008 138.5,184.5C 141.246,183.904 142.08,182.237 141,179.5C 132.527,173.044 132.36,166.378 140.5,159.5 Z"/></g>
<g><path style="opacity:1" fill="#537f45" d="M 96.5,160.5 C 97.1667,166.5 97.8333,172.5 98.5,178.5C 98.6309,179.376 98.2975,180.043 97.5,180.5C 96.5033,173.866 96.17,167.2 96.5,160.5 Z"/></g>
<g><path style="opacity:1" fill="#4c7642" d="M 124.5,172.5 C 124.435,175.428 123.768,178.095 122.5,180.5C 122.294,177.505 122.96,174.838 124.5,172.5 Z"/></g>
<g><path style="opacity:1" fill="#294a33" d="M 169.5,182.5 C 171.265,181.539 173.265,181.205 175.5,181.5C 175.737,182.791 175.404,183.791 174.5,184.5C 173.448,182.744 171.781,182.077 169.5,182.5 Z"/></g>
<g><path style="opacity:1" fill="#507b44" d="M 92.5,190.5 C 91.8333,188.5 91.1667,186.5 90.5,184.5C 90.281,183.325 90.6143,182.325 91.5,181.5C 92.4841,184.428 92.8174,187.428 92.5,190.5 Z"/></g>
<g><path style="opacity:1" fill="#2c4d35" d="M 156.5,181.5 C 156.59,184.152 155.924,186.485 154.5,188.5C 154.41,185.848 155.076,183.515 156.5,181.5 Z"/></g>
<g><path style="opacity:1" fill="#16322b" d="M 105.5,190.5 C 102.993,191.898 100.66,191.564 98.5,189.5C 99.1283,186.91 100.295,184.577 102,182.5C 102.252,184.931 101.752,187.265 100.5,189.5C 102.045,190.452 103.712,190.785 105.5,190.5 Z"/></g>
<g><path style="opacity:1" fill="#81b858" d="M 113.5,196.5 C 126.181,193.709 130.681,198.376 127,210.5C 125.719,213.603 123.886,216.269 121.5,218.5C 122.302,221.449 122.636,224.449 122.5,227.5C 120.533,227.739 118.699,227.406 117,226.5C 114.878,216.066 113.378,216.399 112.5,227.5C 110.5,227.5 108.5,227.5 106.5,227.5C 108.724,217.161 111.058,206.828 113.5,196.5 Z"/></g>
<g><path style="opacity:1" fill="#85bc59" d="M 164.5,205.5 C 163.509,212.313 163.175,219.313 163.5,226.5C 160.603,226.212 157.77,225.545 155,224.5C 153.615,224.514 152.449,224.848 151.5,225.5C 150.082,227.308 148.082,227.975 145.5,227.5C 149.282,217.269 153.615,207.269 158.5,197.5C 160.396,196.534 162.396,196.201 164.5,196.5C 164.5,199.5 164.5,202.5 164.5,205.5 Z"/></g>
<g><path style="opacity:1" fill="#81b858" d="M 98.5,202.5 C 97.4324,201.566 96.099,201.232 94.5,201.5C 94.5,200.167 94.5,198.833 94.5,197.5C 99.6405,196.512 104.974,196.179 110.5,196.5C 111.265,201.906 108.931,203.906 103.5,202.5C 101.961,210.86 100.295,219.194 98.5,227.5C 96.5,227.5 94.5,227.5 92.5,227.5C 94.3419,219.132 96.3419,210.799 98.5,202.5 Z"/></g>
<g><path style="opacity:1" fill="#82b958" d="M 137.5,204.5 C 136.549,205.919 136.216,207.585 136.5,209.5C 137.833,209.5 139.167,209.5 140.5,209.5C 140.5,210.833 140.5,212.167 140.5,213.5C 135.143,213.421 132.809,216.087 133.5,221.5C 136.833,221.5 140.167,221.5 143.5,221.5C 143.167,223.5 142.833,225.5 142.5,227.5C 137.167,227.5 131.833,227.5 126.5,227.5C 127.566,220.033 129.233,212.7 131.5,205.5C 133.04,203.162 133.706,200.495 133.5,197.5C 138.64,196.512 143.974,196.179 149.5,196.5C 149.739,198.467 149.406,200.301 148.5,202C 144.367,201.906 140.701,202.74 137.5,204.5 Z"/></g>
<g><path style="opacity:1" fill="#82b958" d="M 179.5,197.5 C 179.17,203.868 179.504,210.202 180.5,216.5C 181.298,216.043 181.631,215.376 181.5,214.5C 184.218,208.733 187.218,203.067 190.5,197.5C 192.396,196.534 194.396,196.201 196.5,196.5C 195.626,199.789 194.959,203.123 194.5,206.5C 193.076,208.515 192.41,210.848 192.5,213.5C 191.186,217.755 190.019,222.088 189,226.5C 187.301,227.406 185.467,227.739 183.5,227.5C 184.965,219.823 183.965,219.656 180.5,227C 178.527,227.495 176.527,227.662 174.5,227.5C 174.47,216.932 173.804,216.932 172.5,227.5C 170.5,227.5 168.5,227.5 166.5,227.5C 168.666,217.032 170.999,206.698 173.5,196.5C 175.735,196.205 177.735,196.539 179.5,197.5 Z"/></g>
<g><path style="opacity:1" fill="#5a8748" d="M 94.5,197.5 C 94.5,198.833 94.5,200.167 94.5,201.5C 96.099,201.232 97.4324,201.566 98.5,202.5C 96.8333,202.5 95.1667,202.5 93.5,202.5C 93.2155,200.585 93.5489,198.919 94.5,197.5 Z"/></g>
<g><path style="opacity:1" fill="#5e8c49" d="M 133.5,197.5 C 133.706,200.495 133.04,203.162 131.5,205.5C 131.565,202.572 132.232,199.905 133.5,197.5 Z"/></g>
<g><path style="opacity:1" fill="#092125" d="M 117.5,202.5 C 119.167,202.5 120.833,202.5 122.5,202.5C 122.322,205.216 121.822,207.883 121,210.5C 119.89,212.037 118.39,212.703 116.5,212.5C 116.833,209.167 117.167,205.833 117.5,202.5 Z"/></g>
<g><path style="opacity:1" fill="#2f5236" d="M 83.5,203.5 C 85.3792,204.341 87.3792,204.675 89.5,204.5C 88.7261,205.147 87.7261,205.48 86.5,205.5C 84.9704,205.36 83.9704,204.693 83.5,203.5 Z"/></g>
<g><path style="opacity:1" fill="#2e5136" d="M 137.5,204.5 C 137.5,205.833 137.5,207.167 137.5,208.5C 138.833,208.5 140.167,208.5 141.5,208.5C 141.784,210.415 141.451,212.081 140.5,213.5C 140.5,212.167 140.5,210.833 140.5,209.5C 139.167,209.5 137.833,209.5 136.5,209.5C 136.216,207.585 136.549,205.919 137.5,204.5 Z"/></g>
<g><path style="opacity:1" fill="#81b858" d="M 89.5,204.5 C 87.3792,204.675 85.3792,204.341 83.5,203.5C 81.2927,202.13 79.626,202.797 78.5,205.5C 80.522,208.356 83.022,210.689 86,212.5C 87.3238,222.841 82.8238,227.674 72.5,227C 69.9586,225.152 68.9586,222.652 69.5,219.5C 72.3609,219.342 75.0276,220.008 77.5,221.5C 80.2464,220.904 81.0798,219.237 80,216.5C 70.2329,210.118 70.0663,203.618 79.5,197C 83.8981,195.622 87.3981,196.788 90,200.5C 90.765,202.066 90.5983,203.399 89.5,204.5 Z"/></g>
<g><path style="opacity:1" fill="#224030" d="M 194.5,206.5 C 194.59,209.152 193.924,211.485 192.5,213.5C 192.41,210.848 193.076,208.515 194.5,206.5 Z"/></g>
<g><path style="opacity:1" fill="#40683d" d="M 179.5,197.5 C 180.167,203.167 180.833,208.833 181.5,214.5C 181.631,215.376 181.298,216.043 180.5,216.5C 179.504,210.202 179.17,203.868 179.5,197.5 Z"/></g>
<g><path style="opacity:1" fill="#254531" d="M 157.5,212.5 C 158.468,214.607 158.802,216.941 158.5,219.5C 157.5,219.5 156.5,219.5 155.5,219.5C 155.394,216.921 156.061,214.588 157.5,212.5 Z"/></g>
<g><path style="opacity:1" fill="#497241" d="M 164.5,205.5 C 164.5,212.833 164.5,220.167 164.5,227.5C 160.133,227.013 155.799,226.347 151.5,225.5C 152.449,224.848 153.615,224.514 155,224.5C 157.77,225.545 160.603,226.212 163.5,226.5C 163.175,219.313 163.509,212.313 164.5,205.5 Z"/></g>
</svg>
