<?xml version="1.0" encoding="UTF-8"?>
<!DOCTYPE svg PUBLIC "-//W3C//DTD SVG 1.1//EN" "http://www.w3.org/Graphics/SVG/1.1/DTD/svg11.dtd">
<svg xmlns="http://www.w3.org/2000/svg" version="1.1" width="256px" height="256px" style="shape-rendering:geometricPrecision; text-rendering:geometricPrecision; image-rendering:optimizeQuality; fill-rule:evenodd; clip-rule:evenodd" xmlns:xlink="http://www.w3.org/1999/xlink">
<g><path style="opacity:1" fill="#fefffe" d="M -0.5,-0.5 C 84.8333,-0.5 170.167,-0.5 255.5,-0.5C 255.5,84.8333 255.5,170.167 255.5,255.5C 170.167,255.5 84.8333,255.5 -0.5,255.5C -0.5,170.167 -0.5,84.8333 -0.5,-0.5 Z"/></g>
<g><path style="opacity:1" fill="#011822" d="M 136.5,62.5 C 134.61,62.2965 133.11,62.9632 132,64.5C 131.5,73.4938 131.334,82.4938 131.5,91.5C 128.833,91.5 126.167,91.5 123.5,91.5C 125.607,90.5318 127.941,90.1984 130.5,90.5C 130.817,81.9149 130.483,73.4149 129.5,65C 131.054,63.108 132.888,61.608 135,60.5C 136.03,60.8361 136.53,61.5028 136.5,62.5 Z"/></g>
<g><path style="opacity:1" fill="#2093a8" d="M 136.5,62.5 C 136.833,62.5 137.167,62.5 137.5,62.5C 137.427,64.0269 138.094,65.0269 139.5,65.5C 139.5,65.8333 139.5,66.1667 139.5,66.5C 142.784,71.1202 146.45,75.4535 150.5,79.5C 152.582,82.1517 153.915,85.1517 154.5,88.5C 154.5,88.8333 154.5,89.1667 154.5,89.5C 154.5,91.1667 154.5,92.8333 154.5,94.5C 154.5,94.8333 154.5,95.1667 154.5,95.5C 153.232,97.9052 152.565,100.572 152.5,103.5C 151.416,104.974 150.082,105.807 148.5,106C 149.847,99.5118 149.681,93.0118 148,86.5C 145.831,82.8095 142.664,81.1429 138.5,81.5C 138.5,84.5 138.5,87.5 138.5,90.5C 137.18,87.1013 137.18,83.6013 138.5,80C 137.12,78.6764 136.786,77.3431 137.5,76C 136,74.5 134.5,73 133,71.5C 132.828,78.346 132.328,85.0126 131.5,91.5C 131.334,82.4938 131.5,73.4938 132,64.5C 133.11,62.9632 134.61,62.2965 136.5,62.5 Z"/></g>
<g><path style="opacity:1" fill="#062229" d="M 137.5,62.5 C 139.35,63.2418 140.016,64.2418 139.5,65.5C 138.094,65.0269 137.427,64.0269 137.5,62.5 Z"/></g>
<g><path style="opacity:1" fill="#072b35" d="M 139.5,66.5 C 143.584,70.0805 147.584,73.9139 151.5,78C 150.944,78.3826 150.611,78.8826 150.5,79.5C 146.45,75.4535 142.784,71.1202 139.5,66.5 Z"/></g>
<g><path style="opacity:1" fill="#041f28" d="M 150.5,79.5 C 152.411,79.5743 153.578,80.5743 154,82.5C 154.5,84 155,85.5 155.5,87C 155.43,87.7648 155.097,88.2648 154.5,88.5C 153.915,85.1517 152.582,82.1517 150.5,79.5 Z"/></g>
<g><path style="opacity:1" fill="#359d9a" d="M 138.5,90.5 C 138.828,101.346 138.494,112.013 137.5,122.5C 137.666,115.492 137.5,108.492 137,101.5C 135.89,99.6031 135.724,97.7698 136.5,96C 135.5,95 134.5,94 133.5,93C 128.845,92.5008 124.179,92.3342 119.5,92.5C 120.403,90.3796 121.737,90.0462 123.5,91.5C 126.167,91.5 128.833,91.5 131.5,91.5C 132.328,85.0126 132.828,78.346 133,71.5C 134.5,73 136,74.5 137.5,76C 136.786,77.3431 137.12,78.6764 138.5,80C 137.18,83.6013 137.18,87.1013 138.5,90.5 Z"/></g>
<g><path style="opacity:1" fill="#031b24" d="M 152.5,103.5 C 152.376,105.582 151.376,107.082 149.5,108C 152.146,108.497 154.813,108.664 157.5,108.5C 157.666,113.511 157.499,118.511 157,123.5C 156.95,125.744 156.117,127.411 154.5,128.5C 155.32,122.203 155.653,115.869 155.5,109.5C 153.5,109.5 151.5,109.5 149.5,109.5C 149.5,114.167 149.5,118.833 149.5,123.5C 148.007,129.156 145.007,133.823 140.5,137.5C 135.39,140.984 129.723,142.317 123.5,141.5C 110.289,137.428 104.455,128.428 106,114.5C 107.033,111.216 108.533,108.216 110.5,105.5C 113.653,101.675 117.653,99.3419 122.5,98.5C 125.5,98.5 128.5,98.5 131.5,98.5C 131.5,101.833 131.5,105.167 131.5,108.5C 129.265,108.205 127.265,108.539 125.5,109.5C 117.027,111.853 114.527,117.187 118,125.5C 124.136,132.048 130.303,132.048 136.5,125.5C 137.404,124.791 137.737,123.791 137.5,122.5C 138.494,112.013 138.828,101.346 138.5,90.5C 138.5,87.5 138.5,84.5 138.5,81.5C 142.664,81.1429 145.831,82.8095 148,86.5C 149.681,93.0118 149.847,99.5118 148.5,106C 150.082,105.807 151.416,104.974 152.5,103.5 Z"/></g>
<g><path style="opacity:1" fill="#031a23" d="M 154.5,89.5 C 157.048,91.0378 157.048,92.7044 154.5,94.5C 154.5,92.8333 154.5,91.1667 154.5,89.5 Z"/></g>
<g><path style="opacity:1" fill="#08272e" d="M 118.5,92.5 C 118.5,93.1667 118.167,93.5 117.5,93.5C 116.391,93.5569 115.391,93.8902 114.5,94.5C 114.47,93.5028 114.97,92.8361 116,92.5C 117.131,91.6647 117.964,91.6647 118.5,92.5 Z"/></g>
<g><path style="opacity:1" fill="#4ab098" d="M 118.5,92.5 C 118.833,92.5 119.167,92.5 119.5,92.5C 124.179,92.3342 128.845,92.5008 133.5,93C 134.5,94 135.5,95 136.5,96C 135.724,97.7698 135.89,99.6031 137,101.5C 137.5,108.492 137.666,115.492 137.5,122.5C 137.737,123.791 137.404,124.791 136.5,125.5C 136.082,124.778 135.416,124.278 134.5,124C 135.634,122.984 135.301,122.317 133.5,122C 134.634,120.984 134.301,120.317 132.5,120C 133.634,118.984 133.301,118.317 131.5,118C 131.833,117.667 132.167,117.333 132.5,117C 129.83,115.164 128.163,112.664 127.5,109.5C 129.167,109.5 130.833,109.5 132.5,109.5C 132.5,105.5 132.5,101.5 132.5,97.5C 129.167,97.5 125.833,97.5 122.5,97.5C 120.246,96.8763 118.579,95.543 117.5,93.5C 118.167,93.5 118.5,93.1667 118.5,92.5 Z"/></g>
<g><path style="opacity:1" fill="#072126" d="M 113.5,94.5 C 111.54,96.1563 109.54,97.823 107.5,99.5C 108.439,96.759 110.273,94.759 113,93.5C 113.399,93.7284 113.565,94.0618 113.5,94.5 Z"/></g>
<g><path style="opacity:1" fill="#5ba976" d="M 117.5,93.5 C 118.579,95.543 120.246,96.8763 122.5,97.5C 122.5,97.8333 122.5,98.1667 122.5,98.5C 117.653,99.3419 113.653,101.675 110.5,105.5C 110.245,104.064 109.912,102.564 109.5,101C 108.072,100.421 106.738,100.588 105.5,101.5C 105.5,100.167 106.167,99.5 107.5,99.5C 109.54,97.823 111.54,96.1563 113.5,94.5C 113.833,94.5 114.167,94.5 114.5,94.5C 115.391,93.8902 116.391,93.5569 117.5,93.5 Z"/></g>
<g><path style="opacity:1" fill="#1f5b59" d="M 122.5,98.5 C 122.5,98.1667 122.5,97.8333 122.5,97.5C 125.833,97.5 129.167,97.5 132.5,97.5C 132.5,101.5 132.5,105.5 132.5,109.5C 130.833,109.5 129.167,109.5 127.5,109.5C 126.833,109.5 126.167,109.5 125.5,109.5C 127.265,108.539 129.265,108.205 131.5,108.5C 131.5,105.167 131.5,101.833 131.5,98.5C 128.5,98.5 125.5,98.5 122.5,98.5 Z"/></g>
<g><path style="opacity:1" fill="#06252d" d="M 154.5,95.5 C 155.702,98.4868 155.035,101.154 152.5,103.5C 152.565,100.572 153.232,97.9052 154.5,95.5 Z"/></g>
<g><path style="opacity:1" fill="#294f3c" d="M 105.5,101.5 C 105.071,104.147 103.738,106.147 101.5,107.5C 102.298,105.034 103.631,103.034 105.5,101.5 Z"/></g>
<g><path style="opacity:1" fill="#071e24" d="M 101.5,108.5 C 100.833,110.167 100.167,111.833 99.5,113.5C 98.4848,112.54 98.4848,111.373 99.5,110C 99.8361,108.97 100.503,108.47 101.5,108.5 Z"/></g>
<g><path style="opacity:1" fill="#60b47f" d="M 125.5,109.5 C 126.167,109.5 126.833,109.5 127.5,109.5C 128.163,112.664 129.83,115.164 132.5,117C 132.167,117.333 131.833,117.667 131.5,118C 133.301,118.317 133.634,118.984 132.5,120C 134.301,120.317 134.634,120.984 133.5,122C 135.301,122.317 135.634,122.984 134.5,124C 135.416,124.278 136.082,124.778 136.5,125.5C 130.303,132.048 124.136,132.048 118,125.5C 114.527,117.187 117.027,111.853 125.5,109.5 Z"/></g>
<g><path style="opacity:1" fill="#36a6a5" d="M 154.5,128.5 C 154.167,128.5 153.833,128.5 153.5,128.5C 152.876,126.246 151.543,124.579 149.5,123.5C 149.5,118.833 149.5,114.167 149.5,109.5C 151.5,109.5 153.5,109.5 155.5,109.5C 155.653,115.869 155.32,122.203 154.5,128.5 Z"/></g>
<g><path style="opacity:1" fill="#7db95f" d="M 110.5,105.5 C 108.533,108.216 107.033,111.216 106,114.5C 104.455,128.428 110.289,137.428 123.5,141.5C 125.3,142.693 126.967,143.86 128.5,145C 127.402,145.77 127.402,146.603 128.5,147.5C 124.766,147.677 121.099,147.344 117.5,146.5C 116.883,146.611 116.383,146.944 116,147.5C 115.722,146.584 115.222,145.918 114.5,145.5C 113.71,144.599 112.71,143.932 111.5,143.5C 110.29,143.068 109.29,142.401 108.5,141.5C 108.167,140.5 107.5,139.833 106.5,139.5C 106.573,137.973 105.906,136.973 104.5,136.5C 102.623,132.845 100.957,129.178 99.5,125.5C 99.5,125.167 99.5,124.833 99.5,124.5C 99.5,121.167 99.5,117.833 99.5,114.5C 99.5,114.167 99.5,113.833 99.5,113.5C 100.167,111.833 100.833,110.167 101.5,108.5C 101.5,108.167 101.5,107.833 101.5,107.5C 103.738,106.147 105.071,104.147 105.5,101.5C 106.738,100.588 108.072,100.421 109.5,101C 109.912,102.564 110.245,104.064 110.5,105.5 Z"/></g>
<g><path style="opacity:1" fill="#0e2727" d="M 99.5,114.5 C 99.5,117.833 99.5,121.167 99.5,124.5C 97.9735,123.508 97.3068,122.008 97.5,120C 97.3932,117.779 98.0598,115.946 99.5,114.5 Z"/></g>
<g><path style="opacity:1" fill="#142d29" d="M 99.5,125.5 C 100.957,129.178 102.623,132.845 104.5,136.5C 102.926,136.063 101.759,135.063 101,133.5C 99.656,130.741 99.156,128.074 99.5,125.5 Z"/></g>
<g><path style="opacity:1" fill="#429f8a" d="M 149.5,123.5 C 151.543,124.579 152.876,126.246 153.5,128.5C 152.977,131.878 151.644,134.878 149.5,137.5C 149.167,140.5 147.5,142.167 144.5,142.5C 144.803,139.412 143.47,137.746 140.5,137.5C 145.007,133.823 148.007,129.156 149.5,123.5 Z"/></g>
<g><path style="opacity:1" fill="#06242b" d="M 153.5,128.5 C 153.833,128.5 154.167,128.5 154.5,128.5C 155.686,130.194 155.519,131.861 154,133.5C 153.124,135.635 151.624,136.969 149.5,137.5C 151.644,134.878 152.977,131.878 153.5,128.5 Z"/></g>
<g><path style="opacity:1" fill="#19342c" d="M 104.5,136.5 C 105.906,136.973 106.573,137.973 106.5,139.5C 105.094,139.027 104.427,138.027 104.5,136.5 Z"/></g>
<g><path style="opacity:1" fill="#021a22" d="M 106.5,139.5 C 107.5,139.833 108.167,140.5 108.5,141.5C 107.167,141.5 106.5,140.833 106.5,139.5 Z"/></g>
<g><path style="opacity:1" fill="#64b176" d="M 140.5,137.5 C 143.47,137.746 144.803,139.412 144.5,142.5C 143.29,142.932 142.29,143.599 141.5,144.5C 141.591,146.698 140.925,147.031 139.5,145.5C 135.985,146.919 132.319,147.586 128.5,147.5C 127.402,146.603 127.402,145.77 128.5,145C 126.967,143.86 125.3,142.693 123.5,141.5C 129.723,142.317 135.39,140.984 140.5,137.5 Z"/></g>
<g><path style="opacity:1" fill="#0a252a" d="M 144.5,142.5 C 144.179,144.048 143.179,144.715 141.5,144.5C 142.29,143.599 143.29,142.932 144.5,142.5 Z"/></g>
<g><path style="opacity:1" fill="#061c23" d="M 111.5,143.5 C 112.71,143.932 113.71,144.599 114.5,145.5C 114.565,145.938 114.399,146.272 114,146.5C 112.933,145.809 111.766,145.309 110.5,145C 111.056,144.617 111.389,144.117 111.5,143.5 Z"/></g>
<g><path style="opacity:1" fill="#1c382e" d="M 139.5,145.5 C 139.53,146.497 139.03,147.164 138,147.5C 135.923,148.017 133.923,148.684 132,149.5C 129.522,148.553 127.188,148.553 125,149.5C 122.931,148.736 120.764,148.236 118.5,148C 117.944,147.617 117.611,147.117 117.5,146.5C 121.099,147.344 124.766,147.677 128.5,147.5C 132.319,147.586 135.985,146.919 139.5,145.5 Z"/></g>
<g><path style="opacity:1" fill="#345638" d="M 149.5,161.5 C 146.609,160.597 143.609,160.264 140.5,160.5C 140.369,159.624 140.702,158.957 141.5,158.5C 144.65,158.766 147.317,159.766 149.5,161.5 Z"/></g>
<g><path style="opacity:1" fill="#456c40" d="M 155.5,160.5 C 157.693,159.203 160.027,159.203 162.5,160.5C 162.137,161.183 161.804,161.85 161.5,162.5C 161.167,162.5 160.833,162.5 160.5,162.5C 159.448,160.744 157.781,160.077 155.5,160.5 Z"/></g>
<g><path style="opacity:1" fill="#102828" d="M 113.5,159.5 C 114.391,160.11 115.391,160.443 116.5,160.5C 113.29,169.55 111.623,178.883 111.5,188.5C 110.123,187.444 109.29,186.111 109,184.5C 108.722,185.416 108.222,186.082 107.5,186.5C 109.257,177.376 111.257,168.376 113.5,159.5 Z"/></g>
<g><path style="opacity:1" fill="#85bc59" d="M 155.5,160.5 C 157.781,160.077 159.448,160.744 160.5,162.5C 158.37,171.819 156.37,181.153 154.5,190.5C 152.5,190.5 150.5,190.5 148.5,190.5C 149.833,184.5 151.167,178.5 152.5,172.5C 152.5,172.167 152.5,171.833 152.5,171.5C 153.434,170.432 153.768,169.099 153.5,167.5C 153.5,167.167 153.5,166.833 153.5,166.5C 154.404,165.791 154.737,164.791 154.5,163.5C 155.404,162.791 155.737,161.791 155.5,160.5 Z"/></g>
<g><path style="opacity:1" fill="#3c5f3c" d="M 179.5,163.5 C 174.238,159.393 169.238,159.726 164.5,164.5C 164.5,164.167 164.5,163.833 164.5,163.5C 165.792,161.298 167.626,159.631 170,158.5C 172.405,159.274 174.905,159.774 177.5,160C 178.823,160.816 179.489,161.983 179.5,163.5 Z"/></g>
<g><path style="opacity:1" fill="#80b657" d="M 179.5,163.5 C 180.833,164.833 180.833,166.167 179.5,167.5C 176.38,167.844 173.547,167.177 171,165.5C 170.235,165.57 169.735,165.903 169.5,166.5C 167.72,167.99 167.054,169.99 167.5,172.5C 167.5,172.833 167.5,173.167 167.5,173.5C 166.596,174.209 166.263,175.209 166.5,176.5C 166.5,176.833 166.5,177.167 166.5,177.5C 165.596,178.209 165.263,179.209 165.5,180.5C 164.402,181.601 164.235,182.934 165,184.5C 165.977,185.774 166.811,185.774 167.5,184.5C 169.479,182.832 171.812,182.166 174.5,182.5C 174.5,183.5 174.5,184.5 174.5,185.5C 174.167,186.5 173.5,187.167 172.5,187.5C 169.582,189.693 166.248,190.693 162.5,190.5C 160.973,190.573 159.973,189.906 159.5,188.5C 159.5,186.167 159.5,183.833 159.5,181.5C 160.348,176.117 161.515,170.783 163,165.5C 163.383,164.944 163.883,164.611 164.5,164.5C 169.238,159.726 174.238,159.393 179.5,163.5 Z"/></g>
<g><path style="opacity:1" fill="#81b858" d="M 113.5,159.5 C 111.257,168.376 109.257,177.376 107.5,186.5C 107.5,186.833 107.5,187.167 107.5,187.5C 106.596,188.209 106.263,189.209 106.5,190.5C 104.396,190.799 102.396,190.466 100.5,189.5C 101.752,187.265 102.252,184.931 102,182.5C 100.295,184.577 99.1283,186.91 98.5,189.5C 98.5,190.167 98.1667,190.5 97.5,190.5C 95.8333,190.5 94.1667,190.5 92.5,190.5C 92.0877,178.641 91.0877,178.641 89.5,190.5C 87.5,191.833 85.5,191.833 83.5,190.5C 84.038,188.883 84.3713,187.216 84.5,185.5C 84.5,184.833 84.5,184.167 84.5,183.5C 86.2766,180.495 87.2766,177.162 87.5,173.5C 87.5,173.167 87.5,172.833 87.5,172.5C 88.404,171.791 88.7373,170.791 88.5,169.5C 88.4203,166.219 89.087,163.219 90.5,160.5C 92.5,160.5 94.5,160.5 96.5,160.5C 96.17,167.2 96.5033,173.866 97.5,180.5C 98.2975,180.043 98.6309,179.376 98.5,178.5C 98.8333,177.167 99.1667,175.833 99.5,174.5C 100.906,174.027 101.573,173.027 101.5,171.5C 101.5,171.167 101.5,170.833 101.5,170.5C 103.653,168.206 105.32,165.54 106.5,162.5C 106.389,161.883 106.056,161.383 105.5,161C 106.667,160.5 107.5,159.667 108,158.5C 109.699,159.406 111.533,159.739 113.5,159.5 Z"/></g>
<g><path style="opacity:1" fill="#325337" d="M 116.5,160.5 C 118.693,159.203 121.027,159.203 123.5,160.5C 124.011,162.419 123.344,164.085 121.5,165.5C 121.5,163.833 121.5,162.167 121.5,160.5C 119.833,160.5 118.167,160.5 116.5,160.5 Z"/></g>
<g><path style="opacity:1" fill="#1d3a2e" d="M 155.5,160.5 C 155.737,161.791 155.404,162.791 154.5,163.5C 153.185,162.105 153.519,161.105 155.5,160.5 Z"/></g>
<g><path style="opacity:1" fill="#0e2727" d="M 160.5,162.5 C 160.833,162.5 161.167,162.5 161.5,162.5C 162.209,163.404 163.209,163.737 164.5,163.5C 164.5,163.833 164.5,164.167 164.5,164.5C 163.883,164.611 163.383,164.944 163,165.5C 161.515,170.783 160.348,176.117 159.5,181.5C 158.833,181.5 158.5,181.833 158.5,182.5C 157.167,185.167 155.833,187.833 154.5,190.5C 156.37,181.153 158.37,171.819 160.5,162.5 Z"/></g>
<g><path style="opacity:1" fill="#0b2326" d="M 133.5,160.5 C 134.017,162.19 134.35,163.857 134.5,165.5C 134.336,168.187 134.503,170.854 135,173.5C 137.737,175.733 139.903,178.4 141.5,181.5C 141.5,183.5 140.5,184.5 138.5,184.5C 136.028,183.008 133.361,182.342 130.5,182.5C 130.5,184.167 130.5,185.833 130.5,187.5C 129.849,186.909 129.182,186.243 128.5,185.5C 127.482,186.193 126.482,186.859 125.5,187.5C 128.272,178.545 130.939,169.545 133.5,160.5 Z"/></g>
<g><path style="opacity:1" fill="#81b858" d="M 133.5,160.5 C 130.939,169.545 128.272,178.545 125.5,187.5C 125.5,188.167 125.167,188.5 124.5,188.5C 122.266,189.447 119.932,190.114 117.5,190.5C 115.307,190.281 113.307,189.615 111.5,188.5C 111.623,178.883 113.29,169.55 116.5,160.5C 118.167,160.5 119.833,160.5 121.5,160.5C 121.5,162.167 121.5,163.833 121.5,165.5C 120.566,166.568 120.232,167.901 120.5,169.5C 120.5,169.833 120.5,170.167 120.5,170.5C 119.596,171.209 119.263,172.209 119.5,173.5C 119.5,173.833 119.5,174.167 119.5,174.5C 118.596,175.209 118.263,176.209 118.5,177.5C 118.5,177.833 118.5,178.167 118.5,178.5C 116.491,180.378 116.158,182.544 117.5,185C 118.437,185.692 119.103,185.525 119.5,184.5C 121.25,183.341 122.25,181.674 122.5,179.5C 122.5,179.167 122.5,178.833 122.5,178.5C 122.833,177.167 123.167,175.833 123.5,174.5C 123.5,174.167 123.5,173.833 123.5,173.5C 124.458,171.698 125.125,169.698 125.5,167.5C 126.612,165.401 127.279,163.067 127.5,160.5C 129.5,159.167 131.5,159.167 133.5,160.5 Z"/></g>
<g><path style="opacity:1" fill="#213f30" d="M 127.5,160.5 C 127.279,163.067 126.612,165.401 125.5,167.5C 124.523,164.756 125.19,162.423 127.5,160.5 Z"/></g>
<g><path style="opacity:1" fill="#15302a" d="M 154.5,163.5 C 154.737,164.791 154.404,165.791 153.5,166.5C 153.062,166.565 152.728,166.399 152.5,166C 153.066,165.005 153.733,164.172 154.5,163.5 Z"/></g>
<g><path style="opacity:1" fill="#0d2728" d="M 106.5,162.5 C 105.32,165.54 103.653,168.206 101.5,170.5C 102.195,167.085 103.862,164.418 106.5,162.5 Z"/></g>
<g><path style="opacity:1" fill="#2c4b34" d="M 150.5,161.5 C 151.267,162.172 151.934,163.005 152.5,164C 151.89,165.947 151.057,167.781 150,169.5C 147.438,169.738 145.104,168.738 143,166.5C 142.329,167.252 141.496,167.586 140.5,167.5C 140.866,166.305 141.699,165.639 143,165.5C 145.21,167.111 147.71,167.778 150.5,167.5C 150.5,165.5 150.5,163.5 150.5,161.5 Z"/></g>
<g><path style="opacity:1" fill="#264432" d="M 169.5,166.5 C 169.735,165.903 170.235,165.57 171,165.5C 173.547,167.177 176.38,167.844 179.5,167.5C 177.858,169.261 176.025,169.928 174,169.5C 172.871,167.859 171.371,166.859 169.5,166.5 Z"/></g>
<g><path style="opacity:1" fill="#152f2b" d="M 121.5,165.5 C 122.954,167.263 122.62,168.597 120.5,169.5C 120.232,167.901 120.566,166.568 121.5,165.5 Z"/></g>
<g><path style="opacity:1" fill="#0b2326" d="M 125.5,167.5 C 125.125,169.698 124.458,171.698 123.5,173.5C 123.062,173.565 122.728,173.399 122.5,173C 122.989,170.791 123.989,168.958 125.5,167.5 Z"/></g>
<g><path style="opacity:1" fill="#0c2426" d="M 140.5,169.5 C 142.5,169.5 143.5,170.5 143.5,172.5C 142.167,171.833 141.167,170.833 140.5,169.5 Z"/></g>
<g><path style="opacity:1" fill="#18332b" d="M 153.5,167.5 C 153.768,169.099 153.434,170.432 152.5,171.5C 151.529,170.038 151.862,168.705 153.5,167.5 Z"/></g>
<g><path style="opacity:1" fill="#1d3a2e" d="M 169.5,166.5 C 168.829,167.847 168.829,169.014 169.5,170C 168.934,170.995 168.267,171.828 167.5,172.5C 167.054,169.99 167.72,167.99 169.5,166.5 Z"/></g>
<g><path style="opacity:1" fill="#15302a" d="M 88.5,169.5 C 88.7373,170.791 88.404,171.791 87.5,172.5C 87.0618,172.565 86.7284,172.399 86.5,172C 87.0659,171.005 87.7326,170.172 88.5,169.5 Z"/></g>
<g><path style="opacity:1" fill="#122c29" d="M 120.5,170.5 C 121.715,171.779 121.382,172.779 119.5,173.5C 119.263,172.209 119.596,171.209 120.5,170.5 Z"/></g>
<g><path style="opacity:1" fill="#7fb557" d="M 140.5,160.5 C 143.609,160.264 146.609,160.597 149.5,161.5C 149.833,161.5 150.167,161.5 150.5,161.5C 150.5,163.5 150.5,165.5 150.5,167.5C 147.71,167.778 145.21,167.111 143,165.5C 141.699,165.639 140.866,166.305 140.5,167.5C 140.5,168.167 140.5,168.833 140.5,169.5C 141.167,170.833 142.167,171.833 143.5,172.5C 144.492,172.328 145.158,172.662 145.5,173.5C 145.427,175.027 146.094,176.027 147.5,176.5C 147.492,179.545 147.159,182.545 146.5,185.5C 144.977,188.364 142.643,190.031 139.5,190.5C 137.097,190.552 134.764,190.219 132.5,189.5C 131.167,189.5 130.5,188.833 130.5,187.5C 130.5,185.833 130.5,184.167 130.5,182.5C 133.361,182.342 136.028,183.008 138.5,184.5C 140.5,184.5 141.5,183.5 141.5,181.5C 139.903,178.4 137.737,175.733 135,173.5C 134.503,170.854 134.336,168.187 134.5,165.5C 135.893,162.983 137.893,161.316 140.5,160.5 Z"/></g>
<g><path style="opacity:1" fill="#517c44" d="M 90.5,160.5 C 92.6074,159.532 94.9407,159.198 97.5,159.5C 97.5,164.167 97.5,168.833 97.5,173.5C 97.2155,175.415 97.5489,177.081 98.5,178.5C 98.6309,179.376 98.2975,180.043 97.5,180.5C 96.5033,173.866 96.17,167.2 96.5,160.5C 94.5,160.5 92.5,160.5 90.5,160.5 Z"/></g>
<g><path style="opacity:1" fill="#082325" d="M 97.5,173.5 C 98.1667,173.833 98.8333,174.167 99.5,174.5C 99.1667,175.833 98.8333,177.167 98.5,178.5C 97.5489,177.081 97.2155,175.415 97.5,173.5 Z"/></g>
<g><path style="opacity:1" fill="#0c2627" d="M 101.5,171.5 C 101.573,173.027 100.906,174.027 99.5,174.5C 99.427,172.973 100.094,171.973 101.5,171.5 Z"/></g>
<g><path style="opacity:1" fill="#0e2827" d="M 167.5,173.5 C 167.938,173.435 168.272,173.601 168.5,174C 167.934,174.995 167.267,175.828 166.5,176.5C 166.263,175.209 166.596,174.209 167.5,173.5 Z"/></g>
<g><path style="opacity:1" fill="#102a28" d="M 119.5,174.5 C 120.715,175.779 120.382,176.779 118.5,177.5C 118.263,176.209 118.596,175.209 119.5,174.5 Z"/></g>
<g><path style="opacity:1" fill="#0b2426" d="M 123.5,174.5 C 123.167,175.833 122.833,177.167 122.5,178.5C 121.147,176.872 121.481,175.538 123.5,174.5 Z"/></g>
<g><path style="opacity:1" fill="#203e2f" d="M 145.5,173.5 C 146.906,173.973 147.573,174.973 147.5,176.5C 146.094,176.027 145.427,175.027 145.5,173.5 Z"/></g>
<g><path style="opacity:1" fill="#19342c" d="M 87.5,173.5 C 87.2766,177.162 86.2766,180.495 84.5,183.5C 84.0618,183.565 83.7284,183.399 83.5,183C 84.5604,180.263 85.3937,177.43 86,174.5C 86.3826,173.944 86.8826,173.611 87.5,173.5 Z"/></g>
<g><path style="opacity:1" fill="#0e2827" d="M 166.5,177.5 C 166.938,177.435 167.272,177.601 167.5,178C 166.934,178.995 166.267,179.828 165.5,180.5C 165.263,179.209 165.596,178.209 166.5,177.5 Z"/></g>
<g><path style="opacity:1" fill="#112a28" d="M 152.5,172.5 C 151.167,178.5 149.833,184.5 148.5,190.5C 150.5,190.5 152.5,190.5 154.5,190.5C 151.615,192.801 148.948,192.635 146.5,190C 147.801,188.384 147.801,186.884 146.5,185.5C 147.159,182.545 147.492,179.545 147.5,176.5C 148.268,177.263 148.768,178.263 149,179.5C 149.707,177.919 150.54,176.419 151.5,175C 150.434,173.841 150.767,173.008 152.5,172.5 Z"/></g>
<g><path style="opacity:1" fill="#335538" d="M 118.5,178.5 C 119.645,179.793 119.311,180.959 117.5,182C 118.066,182.995 118.733,183.828 119.5,184.5C 119.103,185.525 118.437,185.692 117.5,185C 116.158,182.544 116.491,180.378 118.5,178.5 Z"/></g>
<g><path style="opacity:1" fill="#2a4933" d="M 165.5,180.5 C 165.989,181.995 166.655,183.329 167.5,184.5C 166.811,185.774 165.977,185.774 165,184.5C 164.235,182.934 164.402,181.601 165.5,180.5 Z"/></g>
<g><path style="opacity:1" fill="#18322b" d="M 174.5,185.5 C 174.5,184.5 174.5,183.5 174.5,182.5C 171.812,182.166 169.479,182.832 167.5,184.5C 167.956,181.714 169.623,180.381 172.5,180.5C 176.849,180.855 177.516,182.522 174.5,185.5 Z"/></g>
<g><path style="opacity:1" fill="#082025" d="M 122.5,179.5 C 122.25,181.674 121.25,183.341 119.5,184.5C 119.75,182.326 120.75,180.659 122.5,179.5 Z"/></g>
<g><path style="opacity:1" fill="#3d633c" d="M 159.5,181.5 C 159.5,183.833 159.5,186.167 159.5,188.5C 158.711,188.217 158.044,187.717 157.5,187C 158.38,185.644 158.714,184.144 158.5,182.5C 158.5,181.833 158.833,181.5 159.5,181.5 Z"/></g>
<g><path style="opacity:1" fill="#355839" d="M 97.5,190.5 C 95.7354,191.461 93.7354,191.795 91.5,191.5C 91.6602,189.801 91.4935,188.134 91,186.5C 90.79,188.058 90.29,189.391 89.5,190.5C 91.0877,178.641 92.0877,178.641 92.5,190.5C 94.1667,190.5 95.8333,190.5 97.5,190.5 Z"/></g>
<g><path style="opacity:1" fill="#0e2827" d="M 107.5,187.5 C 107.938,187.435 108.272,187.601 108.5,188C 107.934,188.995 107.267,189.828 106.5,190.5C 106.263,189.209 106.596,188.209 107.5,187.5 Z"/></g>
<g><path style="opacity:1" fill="#0c2527" d="M 84.5,185.5 C 84.3713,187.216 84.038,188.883 83.5,190.5C 82.0698,188.545 82.4031,186.879 84.5,185.5 Z"/></g>
<g><path style="opacity:1" fill="#142e2a" d="M 106.5,190.5 C 106.189,191.478 105.522,192.145 104.5,192.5C 102.164,191.999 100.164,190.999 98.5,189.5C 99.1283,186.91 100.295,184.577 102,182.5C 102.252,184.931 101.752,187.265 100.5,189.5C 102.396,190.466 104.396,190.799 106.5,190.5 Z"/></g>
<g><path style="opacity:1" fill="#102928" d="M 111.5,188.5 C 113.307,189.615 115.307,190.281 117.5,190.5C 119.932,190.114 122.266,189.447 124.5,188.5C 120.323,193.085 115.99,193.085 111.5,188.5 Z"/></g>
<g><path style="opacity:1" fill="#0f2a29" d="M 132.5,189.5 C 134.764,190.219 137.097,190.552 139.5,190.5C 138.726,191.147 137.726,191.48 136.5,191.5C 134.645,191.66 133.312,190.993 132.5,189.5 Z"/></g>
<g><path style="opacity:1" fill="#0b2526" d="M 172.5,187.5 C 172.426,189.411 171.426,190.578 169.5,191C 166.961,191.796 164.628,191.629 162.5,190.5C 166.248,190.693 169.582,189.693 172.5,187.5 Z"/></g>
<g><path style="opacity:1" fill="#041d23" d="M 113.5,196.5 C 117.311,195.355 121.311,195.188 125.5,196C 126.056,196.383 126.389,196.883 126.5,197.5C 122.232,196.627 117.898,196.294 113.5,196.5 Z"/></g>
<g><path style="opacity:1" fill="#112b29" d="M 80.5,196.5 C 79.7095,197.401 78.7095,198.068 77.5,198.5C 77.3691,197.624 77.7025,196.957 78.5,196.5C 79.4288,195.45 80.0954,195.45 80.5,196.5 Z"/></g>
<g><path style="opacity:1" fill="#3e613c" d="M 110.5,196.5 C 110.5,196.833 110.5,197.167 110.5,197.5C 105.167,197.5 99.8333,197.5 94.5,197.5C 94.3653,199.554 95.032,201.221 96.5,202.5C 95.3115,203.048 94.1448,203.381 93,203.5C 92.8333,203 92.6667,202.5 92.5,202C 93.5733,200.584 93.5733,199.25 92.5,198C 93.1667,197.333 93.8333,196.667 94.5,196C 99.8641,195.826 105.197,195.993 110.5,196.5 Z"/></g>
<g><path style="opacity:1" fill="#3e633c" d="M 146.5,202.5 C 147.828,201.493 148.828,200.16 149.5,198.5C 144.198,197.337 138.864,197.171 133.5,198C 132.944,198.383 132.611,198.883 132.5,199.5C 131.475,199.103 131.308,198.437 132,197.5C 133.194,196.57 134.527,195.903 136,195.5C 140.489,195.893 144.822,195.893 149,195.5C 151.483,198.089 151.15,200.755 148,203.5C 147.617,202.944 147.117,202.611 146.5,202.5 Z"/></g>
<g><path style="opacity:1" fill="#0b2326" d="M 110.5,196.5 C 111.391,197.11 112.391,197.443 113.5,197.5C 113.101,201.116 112.101,204.45 110.5,207.5C 110.784,205.585 110.451,203.919 109.5,202.5C 110.301,200.958 110.634,199.292 110.5,197.5C 110.5,197.167 110.5,196.833 110.5,196.5 Z"/></g>
<g><path style="opacity:1" fill="#7cb156" d="M 113.5,196.5 C 117.898,196.294 122.232,196.627 126.5,197.5C 126.427,199.027 127.094,200.027 128.5,200.5C 128.651,207.845 126.318,214.178 121.5,219.5C 122.095,222.14 122.428,224.807 122.5,227.5C 121.903,228.139 121.07,228.472 120,228.5C 118.301,228.613 117.134,227.947 116.5,226.5C 114.853,216.117 113.519,216.45 112.5,227.5C 110.712,228.622 108.712,228.789 106.5,228C 105.199,226.384 105.199,224.884 106.5,223.5C 107.738,221.786 108.405,219.786 108.5,217.5C 108.5,217.167 108.5,216.833 108.5,216.5C 109.404,215.791 109.737,214.791 109.5,213.5C 109.205,211.265 109.539,209.265 110.5,207.5C 112.101,204.45 113.101,201.116 113.5,197.5C 113.5,197.167 113.5,196.833 113.5,196.5 Z"/></g>
<g><path style="opacity:1" fill="#7fb457" d="M 164.5,196.5 C 163.774,206.817 163.44,217.15 163.5,227.5C 161.5,228.833 159.5,228.833 157.5,227.5C 157.5,226.5 157.5,225.5 157.5,224.5C 155.5,224.5 153.5,224.5 151.5,224.5C 151.5,225.5 151.5,226.5 151.5,227.5C 149.5,228.833 147.5,228.833 145.5,227.5C 145.833,226.167 146.167,224.833 146.5,223.5C 148.874,221.066 150.208,218.066 150.5,214.5C 150.5,214.167 150.5,213.833 150.5,213.5C 151.906,213.027 152.573,212.027 152.5,210.5C 154.213,209.365 154.88,207.698 154.5,205.5C 154.66,203.847 155.326,202.514 156.5,201.5C 158.213,200.365 158.88,198.698 158.5,196.5C 160.611,195.258 162.611,195.258 164.5,196.5 Z"/></g>
<g><path style="opacity:1" fill="#294734" d="M 192.5,196.5 C 193.884,195.199 195.384,195.199 197,196.5C 196.689,197.935 196.855,199.268 197.5,200.5C 197.145,201.522 196.478,202.189 195.5,202.5C 195.5,200.5 195.5,198.5 195.5,196.5C 194.5,196.5 193.5,196.5 192.5,196.5 Z"/></g>
<g><path style="opacity:1" fill="#83bb59" d="M 110.5,197.5 C 110.634,199.292 110.301,200.958 109.5,202.5C 108.167,202.5 106.833,202.5 105.5,202.5C 103.307,204.522 102.307,207.189 102.5,210.5C 101.469,212.961 100.802,215.627 100.5,218.5C 100.5,218.833 100.5,219.167 100.5,219.5C 99.596,220.209 99.2627,221.209 99.5,222.5C 99.5,222.833 99.5,223.167 99.5,223.5C 98.596,224.209 98.2627,225.209 98.5,226.5C 98.5,226.833 98.5,227.167 98.5,227.5C 96.8333,227.5 95.1667,227.5 93.5,227.5C 93.5,225.5 93.5,223.5 93.5,221.5C 93.5,221.167 93.5,220.833 93.5,220.5C 94.1098,219.609 94.4431,218.609 94.5,217.5C 96.0395,215.162 96.7062,212.495 96.5,209.5C 96.5,209.167 96.5,208.833 96.5,208.5C 97.3058,207.003 97.9724,205.336 98.5,203.5C 98.3764,202.893 98.0431,202.56 97.5,202.5C 97.1667,202.5 96.8333,202.5 96.5,202.5C 95.032,201.221 94.3653,199.554 94.5,197.5C 99.8333,197.5 105.167,197.5 110.5,197.5 Z"/></g>
<g><path style="opacity:1" fill="#7fb557" d="M 146.5,202.5 C 145.652,203.625 144.652,203.625 143.5,202.5C 137.833,201.502 135.499,203.836 136.5,209.5C 138.415,209.216 140.081,209.549 141.5,210.5C 141.5,210.833 141.5,211.167 141.5,211.5C 139.362,213.209 137.029,214.543 134.5,215.5C 133.709,217.691 133.709,219.691 134.5,221.5C 137.638,220.319 140.638,220.319 143.5,221.5C 143.167,223.5 142.833,225.5 142.5,227.5C 137.167,227.5 131.833,227.5 126.5,227.5C 128.343,218.462 130.343,209.462 132.5,200.5C 132.5,200.167 132.5,199.833 132.5,199.5C 132.611,198.883 132.944,198.383 133.5,198C 138.864,197.171 144.198,197.337 149.5,198.5C 148.828,200.16 147.828,201.493 146.5,202.5 Z"/></g>
<g><path style="opacity:1" fill="#142e2a" d="M 173.5,197.5 C 173.737,198.791 173.404,199.791 172.5,200.5C 171.285,199.221 171.618,198.221 173.5,197.5 Z"/></g>
<g><path style="opacity:1" fill="#254532" d="M 126.5,197.5 C 127.906,197.973 128.573,198.973 128.5,200.5C 127.094,200.027 126.427,199.027 126.5,197.5 Z"/></g>
<g><path style="opacity:1" fill="#305136" d="M 158.5,196.5 C 158.88,198.698 158.213,200.365 156.5,201.5C 156.402,199.447 157.069,197.78 158.5,196.5 Z"/></g>
<g><path style="opacity:1" fill="#264532" d="M 77.5,198.5 C 76.5,200.167 75.1667,201.5 73.5,202.5C 73.8333,200.167 75.1667,198.833 77.5,198.5 Z"/></g>
<g><path style="opacity:1" fill="#122c29" d="M 191.5,196.5 C 190.154,198.537 188.82,200.537 187.5,202.5C 187.595,199.642 188.762,197.309 191,195.5C 191.399,195.728 191.565,196.062 191.5,196.5 Z"/></g>
<g><path style="opacity:1" fill="#7eb357" d="M 179.5,196.5 C 179.17,203.2 179.503,209.866 180.5,216.5C 181.298,216.043 181.631,215.376 181.5,214.5C 183.272,212.059 184.606,209.392 185.5,206.5C 184.939,204.934 185.606,203.601 187.5,202.5C 188.82,200.537 190.154,198.537 191.5,196.5C 191.833,196.5 192.167,196.5 192.5,196.5C 193.5,196.5 194.5,196.5 195.5,196.5C 195.5,198.5 195.5,200.5 195.5,202.5C 194.566,203.568 194.232,204.901 194.5,206.5C 193.469,208.961 192.802,211.627 192.5,214.5C 191.566,215.568 191.232,216.901 191.5,218.5C 190.566,219.568 190.232,220.901 190.5,222.5C 189.566,223.568 189.232,224.901 189.5,226.5C 188.866,227.947 187.699,228.613 186,228.5C 184.93,228.472 184.097,228.139 183.5,227.5C 184.7,219.892 183.7,219.892 180.5,227.5C 179.726,228.147 178.726,228.48 177.5,228.5C 175.97,228.36 174.97,227.693 174.5,226.5C 174.466,217.276 173.8,217.276 172.5,226.5C 172.03,227.693 171.03,228.36 169.5,228.5C 168.274,228.48 167.274,228.147 166.5,227.5C 166.5,226.167 166.5,224.833 166.5,223.5C 167.738,221.786 168.405,219.786 168.5,217.5C 169.434,216.432 169.768,215.099 169.5,213.5C 169.5,213.167 169.5,212.833 169.5,212.5C 171.163,210.562 171.829,208.228 171.5,205.5C 171.5,205.167 171.5,204.833 171.5,204.5C 172.11,203.609 172.443,202.609 172.5,201.5C 172.5,201.167 172.5,200.833 172.5,200.5C 173.404,199.791 173.737,198.791 173.5,197.5C 174.134,196.053 175.301,195.387 177,195.5C 178.07,195.528 178.903,195.861 179.5,196.5 Z"/></g>
<g><path style="opacity:1" fill="#0a2226" d="M 128.5,200.5 C 129.833,201.833 131.167,201.833 132.5,200.5C 130.343,209.462 128.343,218.462 126.5,227.5C 131.833,227.5 137.167,227.5 142.5,227.5C 135.976,228.732 129.309,228.732 122.5,227.5C 122.428,224.807 122.095,222.14 121.5,219.5C 126.318,214.178 128.651,207.845 128.5,200.5 Z"/></g>
<g><path style="opacity:1" fill="#102a29" d="M 172.5,201.5 C 172.443,202.609 172.11,203.609 171.5,204.5C 170.285,203.221 170.618,202.221 172.5,201.5 Z"/></g>
<g><path style="opacity:1" fill="#092125" d="M 117.5,202.5 C 119.167,202.5 120.833,202.5 122.5,202.5C 122.322,205.216 121.822,207.883 121,210.5C 119.89,212.037 118.39,212.703 116.5,212.5C 116.833,209.167 117.167,205.833 117.5,202.5 Z"/></g>
<g><path style="opacity:1" fill="#17302b" d="M 86.5,196.5 C 90.3184,197.799 91.8184,200.466 91,204.5C 87.8006,207.129 84.8006,206.796 82,203.5C 81.3076,204.025 80.8076,204.692 80.5,205.5C 81.6302,206.622 82.2969,207.956 82.5,209.5C 78.7213,207.989 78.0547,205.822 80.5,203C 83.2836,203.919 86.2836,204.419 89.5,204.5C 89.9844,201.212 88.9844,198.545 86.5,196.5 Z"/></g>
<g><path style="opacity:1" fill="#17322b" d="M 105.5,202.5 C 105.397,205.636 104.397,208.302 102.5,210.5C 102.307,207.189 103.307,204.522 105.5,202.5 Z"/></g>
<g><path style="opacity:1" fill="#152f2b" d="M 195.5,202.5 C 196.954,204.263 196.62,205.597 194.5,206.5C 194.232,204.901 194.566,203.568 195.5,202.5 Z"/></g>
<g><path style="opacity:1" fill="#2c4d35" d="M 73.5,202.5 C 73.5,205.167 73.5,207.833 73.5,210.5C 72.7171,208.657 72.0505,206.657 71.5,204.5C 71.8555,203.478 72.5222,202.811 73.5,202.5 Z"/></g>
<g><path style="opacity:1" fill="#18332c" d="M 97.5,202.5 C 98.0431,202.56 98.3764,202.893 98.5,203.5C 97.9724,205.336 97.3058,207.003 96.5,208.5C 95.9569,208.44 95.6236,208.107 95.5,207.5C 96.1744,205.805 96.8411,204.138 97.5,202.5 Z"/></g>
<g><path style="opacity:1" fill="#18322c" d="M 143.5,202.5 C 141.257,203.084 139.257,204.25 137.5,206C 138.891,207.02 140.391,207.853 142,208.5C 142.692,209.437 142.525,210.103 141.5,210.5C 140.081,209.549 138.415,209.216 136.5,209.5C 135.499,203.836 137.833,201.502 143.5,202.5 Z"/></g>
<g><path style="opacity:1" fill="#81b858" d="M 86.5,196.5 C 88.9844,198.545 89.9844,201.212 89.5,204.5C 86.2836,204.419 83.2836,203.919 80.5,203C 78.0547,205.822 78.7213,207.989 82.5,209.5C 83.4916,209.328 84.1583,209.662 84.5,210.5C 84.427,212.027 85.0937,213.027 86.5,213.5C 86.5,213.833 86.5,214.167 86.5,214.5C 86.552,216.903 86.2186,219.236 85.5,221.5C 84.5987,222.29 83.9321,223.29 83.5,224.5C 82.2905,224.932 81.2905,225.599 80.5,226.5C 78.2362,227.219 75.9029,227.552 73.5,227.5C 71.5956,227.262 70.2623,226.262 69.5,224.5C 69.5,222.833 69.5,221.167 69.5,219.5C 72.9164,219.93 76.2498,220.43 79.5,221C 81.0767,218.14 80.4101,215.973 77.5,214.5C 76.5,212.833 75.1667,211.5 73.5,210.5C 73.5,207.833 73.5,205.167 73.5,202.5C 75.1667,201.5 76.5,200.167 77.5,198.5C 78.7095,198.068 79.7095,197.401 80.5,196.5C 82.5,195.167 84.5,195.167 86.5,196.5 Z"/></g>
<g><path style="opacity:1" fill="#3e623c" d="M 154.5,205.5 C 154.88,207.698 154.213,209.365 152.5,210.5C 153.171,209.153 153.171,207.986 152.5,207C 153.044,206.283 153.711,205.783 154.5,205.5 Z"/></g>
<g><path style="opacity:1" fill="#213d30" d="M 171.5,205.5 C 171.829,208.228 171.163,210.562 169.5,212.5C 169.062,212.565 168.728,212.399 168.5,212C 169.132,209.585 170.132,207.418 171.5,205.5 Z"/></g>
<g><path style="opacity:1" fill="#335437" d="M 179.5,196.5 C 180.117,196.611 180.617,196.944 181,197.5C 181.251,202.501 181.084,207.501 180.5,212.5C 180.328,213.492 180.662,214.158 181.5,214.5C 181.631,215.376 181.298,216.043 180.5,216.5C 179.503,209.866 179.17,203.2 179.5,196.5 Z"/></g>
<g><path style="opacity:1" fill="#1e3a2e" d="M 73.5,210.5 C 75.1667,211.5 76.5,212.833 77.5,214.5C 75.1667,214.167 73.8333,212.833 73.5,210.5 Z"/></g>
<g><path style="opacity:1" fill="#0c2527" d="M 185.5,206.5 C 184.606,209.392 183.272,212.059 181.5,214.5C 180.662,214.158 180.328,213.492 180.5,212.5C 181.709,210.059 183.376,208.059 185.5,206.5 Z"/></g>
<g><path style="opacity:1" fill="#1c382d" d="M 84.5,210.5 C 86.3497,211.242 87.0164,212.242 86.5,213.5C 85.0937,213.027 84.427,212.027 84.5,210.5 Z"/></g>
<g><path style="opacity:1" fill="#102929" d="M 152.5,210.5 C 152.573,212.027 151.906,213.027 150.5,213.5C 150.427,211.973 151.094,210.973 152.5,210.5 Z"/></g>
<g><path style="opacity:1" fill="#142e2a" d="M 194.5,206.5 C 195.12,209.354 194.454,212.021 192.5,214.5C 192.802,211.627 193.469,208.961 194.5,206.5 Z"/></g>
<g><path style="opacity:1" fill="#132e2a" d="M 102.5,210.5 C 102.611,211.117 102.944,211.617 103.5,212C 103.05,214.533 102.05,216.7 100.5,218.5C 100.802,215.627 101.469,212.961 102.5,210.5 Z"/></g>
<g><path style="opacity:1" fill="#1c382d" d="M 96.5,209.5 C 96.7062,212.495 96.0395,215.162 94.5,217.5C 94.0702,215.38 94.0702,213.38 94.5,211.5C 94.8555,210.478 95.5222,209.811 96.5,209.5 Z"/></g>
<g><path style="opacity:1" fill="#3f653d" d="M 141.5,211.5 C 141.567,212.959 141.234,214.292 140.5,215.5C 138.5,215.5 136.5,215.5 134.5,215.5C 137.029,214.543 139.362,213.209 141.5,211.5 Z"/></g>
<g><path style="opacity:1" fill="#1b372d" d="M 169.5,213.5 C 169.768,215.099 169.434,216.432 168.5,217.5C 167.046,215.737 167.38,214.403 169.5,213.5 Z"/></g>
<g><path style="opacity:1" fill="#1b372d" d="M 109.5,213.5 C 109.737,214.791 109.404,215.791 108.5,216.5C 108.062,216.565 107.728,216.399 107.5,216C 108.066,215.005 108.733,214.172 109.5,213.5 Z"/></g>
<g><path style="opacity:1" fill="#061d24" d="M 134.5,215.5 C 136.5,215.5 138.5,215.5 140.5,215.5C 139.081,216.451 137.415,216.784 135.5,216.5C 135.634,218.292 135.301,219.958 134.5,221.5C 133.709,219.691 133.709,217.691 134.5,215.5 Z"/></g>
<g><path style="opacity:1" fill="#254531" d="M 157.5,212.5 C 158.468,214.607 158.802,216.941 158.5,219.5C 157.5,219.5 156.5,219.5 155.5,219.5C 155.394,216.921 156.061,214.588 157.5,212.5 Z"/></g>
<g><path style="opacity:1" fill="#18332c" d="M 192.5,214.5 C 193.443,216.001 193.109,217.335 191.5,218.5C 191.232,216.901 191.566,215.568 192.5,214.5 Z"/></g>
<g><path style="opacity:1" fill="#0c2627" d="M 86.5,214.5 C 87.1524,215.449 87.4857,216.615 87.5,218C 87.3917,219.681 86.7251,220.848 85.5,221.5C 86.7251,220.848 87.3917,219.681 87.5,218C 87.4857,216.615 87.1524,215.449 86.5,214.5 Z"/></g>
<g><path style="opacity:1" fill="#0c2527" d="M 94.5,217.5 C 94.4431,218.609 94.1098,219.609 93.5,220.5C 92.2848,219.221 92.6182,218.221 94.5,217.5 Z"/></g>
<g><path style="opacity:1" fill="#021821" d="M 164.5,218.5 C 165.167,220.167 165.833,221.833 166.5,223.5C 166.5,224.833 166.5,226.167 166.5,227.5C 165.833,227.5 165.167,227.5 164.5,227.5C 164.5,224.5 164.5,221.5 164.5,218.5 Z"/></g>
<g><path style="opacity:1" fill="#365739" d="M 150.5,214.5 C 150.208,218.066 148.874,221.066 146.5,223.5C 147.171,222.153 147.171,220.986 146.5,220C 147.9,218.144 149.233,216.311 150.5,214.5 Z"/></g>
<g><path style="opacity:1" fill="#264632" d="M 164.5,196.5 C 165.725,197.152 166.392,198.319 166.5,200C 166.21,203.118 165.544,206.118 164.5,209C 165.395,212.095 165.395,215.262 164.5,218.5C 164.5,221.5 164.5,224.5 164.5,227.5C 164.167,227.5 163.833,227.5 163.5,227.5C 163.44,217.15 163.774,206.817 164.5,196.5 Z"/></g>
<g><path style="opacity:1" fill="#15302b" d="M 77.5,214.5 C 80.4101,215.973 81.0767,218.14 79.5,221C 76.2498,220.43 72.9164,219.93 69.5,219.5C 69.5,221.167 69.5,222.833 69.5,224.5C 66.4242,220.896 67.2576,218.563 72,217.5C 74.3331,217.583 76.1665,218.583 77.5,220.5C 78.2868,219.758 78.9535,218.925 79.5,218C 78.1772,217.184 77.5106,216.017 77.5,214.5 Z"/></g>
<g><path style="opacity:1" fill="#142f2a" d="M 100.5,219.5 C 101.815,220.895 101.481,221.895 99.5,222.5C 99.2627,221.209 99.596,220.209 100.5,219.5 Z"/></g>
<g><path style="opacity:1" fill="#082225" d="M 108.5,217.5 C 108.405,219.786 107.738,221.786 106.5,223.5C 106.259,221.102 106.926,219.102 108.5,217.5 Z"/></g>
<g><path style="opacity:1" fill="#102928" d="M 116.5,226.5 C 115.778,226.082 115.278,225.416 115,224.5C 114.623,225.942 113.79,226.942 112.5,227.5C 113.519,216.45 114.853,216.117 116.5,226.5 Z"/></g>
<g><path style="opacity:1" fill="#0a2426" d="M 168.5,217.5 C 168.405,219.786 167.738,221.786 166.5,223.5C 166.054,220.99 166.72,218.99 168.5,217.5 Z"/></g>
<g><path style="opacity:1" fill="#142f2b" d="M 191.5,218.5 C 192.443,220.001 192.109,221.335 190.5,222.5C 190.232,220.901 190.566,219.568 191.5,218.5 Z"/></g>
<g><path style="opacity:1" fill="#122d29" d="M 174.5,226.5 C 173.833,226.5 173.167,226.5 172.5,226.5C 173.8,217.276 174.466,217.276 174.5,226.5 Z"/></g>
<g><path style="opacity:1" fill="#102828" d="M 85.5,221.5 C 85.7148,223.179 85.0481,224.179 83.5,224.5C 83.9321,223.29 84.5987,222.29 85.5,221.5 Z"/></g>
<g><path style="opacity:1" fill="#17312b" d="M 99.5,223.5 C 100.715,224.779 100.382,225.779 98.5,226.5C 98.2627,225.209 98.596,224.209 99.5,223.5 Z"/></g>
<g><path style="opacity:1" fill="#0f2828" d="M 143.5,221.5 C 144.268,222.263 144.768,223.263 145,224.5C 145.383,223.944 145.883,223.611 146.5,223.5C 146.167,224.833 145.833,226.167 145.5,227.5C 144.5,227.5 143.5,227.5 142.5,227.5C 142.833,225.5 143.167,223.5 143.5,221.5 Z"/></g>
<g><path style="opacity:1" fill="#213e2f" d="M 157.5,227.5 C 156.279,226.972 155.113,226.305 154,225.5C 153.292,226.381 152.458,227.047 151.5,227.5C 151.5,226.5 151.5,225.5 151.5,224.5C 153.5,224.5 155.5,224.5 157.5,224.5C 157.5,225.5 157.5,226.5 157.5,227.5 Z"/></g>
<g><path style="opacity:1" fill="#0e2627" d="M 83.5,224.5 C 83.1788,226.048 82.1788,226.715 80.5,226.5C 81.2905,225.599 82.2905,224.932 83.5,224.5 Z"/></g>
<g><path style="opacity:1" fill="#0f2928" d="M 183.5,227.5 C 182.5,227.5 181.5,227.5 180.5,227.5C 183.7,219.892 184.7,219.892 183.5,227.5 Z"/></g>
<g><path style="opacity:1" fill="#18332c" d="M 190.5,222.5 C 191.443,224.001 191.109,225.335 189.5,226.5C 189.232,224.901 189.566,223.568 190.5,222.5 Z"/></g>
<g><path style="opacity:1" fill="#2d4c35" d="M 93.5,221.5 C 93.5,223.5 93.5,225.5 93.5,227.5C 95.1667,227.5 96.8333,227.5 98.5,227.5C 96.4402,228.811 94.2735,228.811 92,227.5C 92.379,225.925 92.2123,224.425 91.5,223C 92.0442,222.283 92.7109,221.783 93.5,221.5 Z"/></g>
<g><path style="opacity:1" fill="#061f24" d="M 80.5,226.5 C 79.6879,227.993 78.3545,228.66 76.5,228.5C 75.2739,228.48 74.2739,228.147 73.5,227.5C 75.9029,227.552 78.2362,227.219 80.5,226.5 Z"/></g>
</svg>
