<?xml version="1.0" encoding="UTF-8"?>
<!DOCTYPE svg PUBLIC "-//W3C//DTD SVG 1.1//EN" "http://www.w3.org/Graphics/SVG/1.1/DTD/svg11.dtd">
<svg xmlns="http://www.w3.org/2000/svg" version="1.1" width="1026px" height="304px" style="shape-rendering:geometricPrecision; text-rendering:geometricPrecision; image-rendering:optimizeQuality; fill-rule:evenodd; clip-rule:evenodd" xmlns:xlink="http://www.w3.org/1999/xlink">
<g><path style="opacity:1" fill="#001822" d="M -0.5,-0.5 C 341.5,-0.5 683.5,-0.5 1025.5,-0.5C 1025.5,100.833 1025.5,202.167 1025.5,303.5C 683.5,303.5 341.5,303.5 -0.5,303.5C -0.5,202.167 -0.5,100.833 -0.5,-0.5 Z"/></g>
<g><path style="opacity:1" fill="#249aad" d="M 525.5,96.5 C 525.611,95.8826 525.944,95.3826 526.5,95C 523.955,92.6244 521.622,90.1244 519.5,87.5C 518.833,94.6553 518.167,101.655 517.5,108.5C 517.333,97.8281 517.5,87.1615 518,76.5C 519.466,74.6751 521.299,74.1751 523.5,75C 527.873,82.3799 533.373,88.8799 540,94.5C 546.134,105.363 545.801,116.03 539,126.5C 538.897,118.756 538.231,111.089 537,103.5C 534.823,98.4962 530.989,96.1629 525.5,96.5 Z"/></g>
<g><path style="opacity:1" fill="#36a6a6" d="M 525.5,96.5 C 525.5,104.167 525.5,111.833 525.5,119.5C 524.778,119.918 524.278,120.584 524,121.5C 521.998,117.038 519.498,113.038 516.5,109.5C 517.167,109.5 517.5,109.167 517.5,108.5C 518.167,101.655 518.833,94.6553 519.5,87.5C 521.622,90.1244 523.955,92.6244 526.5,95C 525.944,95.3826 525.611,95.8826 525.5,96.5 Z"/></g>
<g><path style="opacity:1" fill="#2f776d" d="M 517.5,108.5 C 517.5,109.167 517.167,109.5 516.5,109.5C 513.15,109.335 509.817,109.502 506.5,110C 505.263,110.232 504.263,110.732 503.5,111.5C 502.167,111.5 500.833,111.5 499.5,111.5C 505.085,108.857 511.085,107.857 517.5,108.5 Z"/></g>
<g><path style="opacity:1" fill="#5caf80" d="M 499.5,111.5 C 500.833,111.5 502.167,111.5 503.5,111.5C 503.682,116.794 504.182,116.794 505,111.5C 505.352,113.247 505.852,114.914 506.5,116.5C 501.658,118.342 497.325,121.009 493.5,124.5C 493.421,123.07 493.754,121.736 494.5,120.5C 493.902,119.205 493.402,117.872 493,116.5C 492.667,117.5 492.333,118.5 492,119.5C 491.722,118.584 491.222,117.918 490.5,117.5C 492.946,114.769 495.946,112.769 499.5,111.5 Z"/></g>
<g><path style="opacity:1" fill="#48a991" d="M 516.5,109.5 C 519.498,113.038 521.998,117.038 524,121.5C 524.278,120.584 524.778,119.918 525.5,119.5C 525.666,128.506 525.5,137.506 525,146.5C 524.617,147.056 524.117,147.389 523.5,147.5C 523.082,146.778 522.416,146.278 521.5,146C 521.957,145.586 522.291,145.086 522.5,144.5C 519.555,140.945 517.389,136.945 516,132.5C 515.667,133.5 515.333,134.5 515,135.5C 514.893,131.855 514.06,129.855 512.5,129.5C 514.167,129.5 515.833,129.5 517.5,129.5C 517.5,125.167 517.5,120.833 517.5,116.5C 513.833,116.5 510.167,116.5 506.5,116.5C 505.852,114.914 505.352,113.247 505,111.5C 504.182,116.794 503.682,116.794 503.5,111.5C 504.263,110.732 505.263,110.232 506.5,110C 509.817,109.502 513.15,109.335 516.5,109.5 Z"/></g>
<g><path style="opacity:1" fill="#6db36d" d="M 493.5,124.5 C 490.258,128.051 487.924,132.051 486.5,136.5C 486.863,134.089 485.863,132.589 483.5,132C 484.167,131.667 484.833,131.333 485.5,131C 484.255,130.209 482.922,129.709 481.5,129.5C 483.539,124.746 486.539,120.746 490.5,117.5C 491.222,117.918 491.722,118.584 492,119.5C 492.333,118.5 492.667,117.5 493,116.5C 493.402,117.872 493.902,119.205 494.5,120.5C 493.754,121.736 493.421,123.07 493.5,124.5 Z"/></g>
<g><path style="opacity:1" fill="#5db283" d="M 512.5,129.5 C 514.06,129.855 514.893,131.855 515,135.5C 515.333,134.5 515.667,133.5 516,132.5C 517.389,136.945 519.555,140.945 522.5,144.5C 522.291,145.086 521.957,145.586 521.5,146C 522.416,146.278 523.082,146.778 523.5,147.5C 520.471,154.279 515.471,156.613 508.5,154.5C 513.891,154.649 514.558,153.149 510.5,150C 510.833,149.667 511.167,149.333 511.5,149C 510.333,147.833 509.167,146.667 508,145.5C 507.486,142.49 506.153,139.49 504,136.5C 503.667,137.167 503.333,137.833 503,138.5C 502.722,137.584 502.222,136.918 501.5,136.5C 503.679,131.906 507.346,129.573 512.5,129.5 Z"/></g>
<g><path style="opacity:1" fill="#329e9f" d="M 543.5,152.5 C 542.671,151.668 541.838,152.001 541,153.5C 541.536,151.553 541.202,149.553 540,147.5C 539.667,148.5 539.333,149.5 539,150.5C 538.536,149.906 538.369,149.239 538.5,148.5C 538.5,142.167 538.5,135.833 538.5,129.5C 541.167,129.5 543.833,129.5 546.5,129.5C 546.666,135.176 546.499,140.843 546,146.5C 545.155,148.611 544.322,150.611 543.5,152.5 Z"/></g>
<g><path style="opacity:1" fill="#84bd5c" d="M 481.5,129.5 C 482.922,129.709 484.255,130.209 485.5,131C 484.833,131.333 484.167,131.667 483.5,132C 485.863,132.589 486.863,134.089 486.5,136.5C 485.064,149.226 489.731,158.893 500.5,165.5C 499.488,167.1 499.988,168.434 502,169.5C 503.011,168.663 504.178,168.33 505.5,168.5C 505.519,170.06 505.852,171.56 506.5,173C 506.164,174.03 505.497,174.53 504.5,174.5C 491.148,171.314 482.981,162.981 480,149.5C 479.066,142.673 479.566,136.006 481.5,129.5 Z"/></g>
<g><path style="opacity:1" fill="#6bb573" d="M 501.5,136.5 C 502.222,136.918 502.722,137.584 503,138.5C 503.333,137.833 503.667,137.167 504,136.5C 506.153,139.49 507.486,142.49 508,145.5C 509.167,146.667 510.333,147.833 511.5,149C 511.167,149.333 510.833,149.667 510.5,150C 514.558,153.149 513.891,154.649 508.5,154.5C 504.981,153.817 502.481,151.817 501,148.5C 498.867,144.248 499.034,140.248 501.5,136.5 Z"/></g>
<g><path style="opacity:1" fill="#49ac94" d="M 543.5,152.5 C 541.822,159.186 538.155,164.52 532.5,168.5C 533.521,165.773 532.521,163.773 529.5,162.5C 533.353,158.327 536.353,153.66 538.5,148.5C 538.369,149.239 538.536,149.906 539,150.5C 539.333,149.5 539.667,148.5 540,147.5C 541.202,149.553 541.536,151.553 541,153.5C 541.838,152.001 542.671,151.668 543.5,152.5 Z"/></g>
<g><path style="opacity:1" fill="#5cb080" d="M 529.5,162.5 C 532.521,163.773 533.521,165.773 532.5,168.5C 528.839,171.829 524.506,173.829 519.5,174.5C 519.736,172.951 519.736,171.451 519.5,170C 520.167,169.667 520.833,169.333 521.5,169C 519.866,168.506 518.199,168.34 516.5,168.5C 521.11,167.252 525.443,165.252 529.5,162.5 Z"/></g>
<g><path style="opacity:1" fill="#72b96e" d="M 500.5,165.5 C 505.485,168.07 510.818,169.07 516.5,168.5C 518.199,168.34 519.866,168.506 521.5,169C 520.833,169.333 520.167,169.667 519.5,170C 519.736,171.451 519.736,172.951 519.5,174.5C 514.5,175.833 509.5,175.833 504.5,174.5C 505.497,174.53 506.164,174.03 506.5,173C 505.852,171.56 505.519,170.06 505.5,168.5C 504.178,168.33 503.011,168.663 502,169.5C 499.988,168.434 499.488,167.1 500.5,165.5 Z"/></g>
<g><path style="opacity:1" fill="#497341" d="M 513.5,190.5 C 515.265,189.539 517.265,189.205 519.5,189.5C 519.737,190.791 519.404,191.791 518.5,192.5C 517.448,190.744 515.781,190.077 513.5,190.5 Z"/></g>
<g><path style="opacity:1" fill="#436b3f" d="M 500.5,190.5 C 502.265,189.539 504.265,189.205 506.5,189.5C 506.768,191.099 506.434,192.432 505.5,193.5C 505.5,192.5 505.5,191.5 505.5,190.5C 503.833,190.5 502.167,190.5 500.5,190.5 Z"/></g>
<g><path style="opacity:1" fill="#83ba59" d="M 529.5,189.5 C 536.856,188.984 540.523,192.317 540.5,199.5C 538.076,199.808 535.743,199.474 533.5,198.5C 531.764,195.895 529.931,195.895 528,198.5C 527.333,199.833 527.333,201.167 528,202.5C 539.372,210.421 539.206,218.254 527.5,226C 519.432,227.754 515.432,224.587 515.5,216.5C 518.167,216.5 520.833,216.5 523.5,216.5C 523.5,217.5 523.5,218.5 523.5,219.5C 526.864,220.127 528.864,218.794 529.5,215.5C 526.861,212.073 524.027,208.74 521,205.5C 519.374,197.751 522.207,192.418 529.5,189.5 Z"/></g>
<g><path style="opacity:1" fill="#82b959" d="M 500.5,190.5 C 502.167,190.5 503.833,190.5 505.5,190.5C 505.5,191.5 505.5,192.5 505.5,193.5C 503.414,202.091 501.747,210.757 500.5,219.5C 502.993,219.671 504.826,218.671 506,216.5C 507.6,207.41 510.1,198.743 513.5,190.5C 515.781,190.077 517.448,190.744 518.5,192.5C 516.623,202.009 514.123,211.343 511,220.5C 507.064,226.391 501.897,227.891 495.5,225C 493.556,223.278 492.556,221.111 492.5,218.5C 494.59,210.903 496.424,203.237 498,195.5C 498.985,193.825 499.819,192.158 500.5,190.5 Z"/></g>
<g><path style="opacity:1" fill="#83ba59" d="M 480.5,226.5 C 481.342,223.502 481.842,220.502 482,217.5C 480.295,219.577 479.128,221.91 478.5,224.5C 477.287,225.575 475.787,226.241 474,226.5C 472.319,226.392 471.152,225.725 470.5,224.5C 470.665,221.482 470.498,218.482 470,215.5C 468.731,216.905 468.231,218.571 468.5,220.5C 468.167,222.5 467.833,224.5 467.5,226.5C 465.167,226.5 462.833,226.5 460.5,226.5C 463.019,214.423 465.853,202.423 469,190.5C 471.333,189.167 473.667,189.167 476,190.5C 476.333,198.167 476.667,205.833 477,213.5C 481.035,206.291 484.868,198.958 488.5,191.5C 490.51,189.829 492.843,189.162 495.5,189.5C 493.09,201.884 490.423,214.218 487.5,226.5C 485.167,226.5 482.833,226.5 480.5,226.5 Z"/></g>
<g><path style="opacity:1" fill="#7fb557" d="M 560.5,202.5 C 559.076,204.515 558.41,206.848 558.5,209.5C 557.676,212.764 557.342,216.098 557.5,219.5C 560.413,218.76 563.247,217.76 566,216.5C 567.167,216.833 568.333,217.167 569.5,217.5C 565.102,225.914 558.935,227.914 551,223.5C 549.543,220.634 549.21,217.634 550,214.5C 551.682,208.48 553.349,202.48 555,196.5C 557.205,193.96 559.705,191.793 562.5,190C 570.123,188.64 574.123,191.807 574.5,199.5C 572.076,199.808 569.743,199.474 567.5,198.5C 562.956,195.332 560.622,196.665 560.5,202.5 Z"/></g>
<g><path style="opacity:1" fill="#82b958" d="M 546.5,189.5 C 548.5,189.5 550.5,189.5 552.5,189.5C 549.832,201.839 547.166,214.173 544.5,226.5C 542.167,226.5 539.833,226.5 537.5,226.5C 539.868,213.988 542.868,201.655 546.5,189.5 Z"/></g>
<g><path style="opacity:1" fill="#274935" d="M 560.5,202.5 C 560.59,205.152 559.924,207.485 558.5,209.5C 558.41,206.848 559.076,204.515 560.5,202.5 Z"/></g>
<g><path style="opacity:1" fill="#355a3a" d="M 470.5,224.5 C 469.833,223.167 469.167,221.833 468.5,220.5C 468.231,218.571 468.731,216.905 470,215.5C 470.498,218.482 470.665,221.482 470.5,224.5 Z"/></g>
<g><path style="opacity:1" fill="#17352e" d="M 480.5,226.5 C 479.833,225.833 479.167,225.167 478.5,224.5C 479.128,221.91 480.295,219.577 482,217.5C 481.842,220.502 481.342,223.502 480.5,226.5 Z"/></g>
<g><path style="opacity:1" fill="#81b859" d="M 477.5,269.5 C 475.5,269.5 473.5,269.5 471.5,269.5C 471.5,268.5 471.5,267.5 471.5,266.5C 473.303,258.429 475.303,250.429 477.5,242.5C 478.404,241.791 478.737,240.791 478.5,239.5C 476.265,239.795 474.265,239.461 472.5,238.5C 472.286,236.856 472.62,235.356 473.5,234C 479.825,233.5 486.158,233.334 492.5,233.5C 492.007,235.806 491.674,238.139 491.5,240.5C 489.167,240.5 486.833,240.5 484.5,240.5C 482.631,250.307 480.298,259.973 477.5,269.5 Z"/></g>
<g><path style="opacity:1" fill="#84bb59" d="M 506.5,267.5 C 505.082,269.308 503.082,269.975 500.5,269.5C 499.384,266.656 498.384,263.656 497.5,260.5C 496.914,260.709 496.414,261.043 496,261.5C 495.433,264.168 494.933,266.834 494.5,269.5C 492.5,269.5 490.5,269.5 488.5,269.5C 489.092,266.873 489.425,264.206 489.5,261.5C 491.597,252.52 493.764,243.52 496,234.5C 512.472,230.648 517.472,236.648 511,252.5C 510,254.833 508.333,256.5 506,257.5C 505.612,260.849 505.779,264.183 506.5,267.5 Z"/></g>
<g><path style="opacity:1" fill="#83ba59" d="M 529.5,269.5 C 523.074,270.12 517.074,269.453 511.5,267.5C 514.002,256.498 516.502,245.498 519,234.5C 525.41,233.522 531.91,233.189 538.5,233.5C 538.756,235.792 538.423,237.959 537.5,240C 533.129,240.172 528.796,240.672 524.5,241.5C 523.626,243.747 523.292,246.08 523.5,248.5C 525.167,248.5 526.833,248.5 528.5,248.5C 528.326,250.861 527.993,253.194 527.5,255.5C 525.167,255.5 522.833,255.5 520.5,255.5C 520.167,258.167 519.833,260.833 519.5,263.5C 523.555,263.176 527.555,263.509 531.5,264.5C 530.972,266.336 530.306,268.003 529.5,269.5 Z"/></g>
<g><path style="opacity:1" fill="#83ba59" d="M 540.5,269.5 C 538.265,269.795 536.265,269.461 534.5,268.5C 539.106,257.025 544.106,245.691 549.5,234.5C 551.743,233.526 554.076,233.192 556.5,233.5C 556.666,245.528 556.166,257.528 555,269.5C 552.959,270.423 550.792,270.756 548.5,270.5C 548.5,269.5 548.5,268.5 548.5,267.5C 546.143,267.337 543.81,267.503 541.5,268C 540.944,268.383 540.611,268.883 540.5,269.5 Z"/></g>
<g><path style="opacity:1" fill="#082025" d="M 502.5,252.5 C 501.5,252.5 500.5,252.5 499.5,252.5C 499.5,251.5 499.5,250.5 499.5,249.5C 499.851,246.762 500.518,244.096 501.5,241.5C 502.723,240.386 504.056,240.219 505.5,241C 507.389,245.656 506.389,249.489 502.5,252.5 Z"/></g>
<g><path style="opacity:1" fill="#507c45" d="M 472.5,238.5 C 474.265,239.461 476.265,239.795 478.5,239.5C 478.737,240.791 478.404,241.791 477.5,242.5C 475.975,240.964 473.975,239.964 471.5,239.5C 471.624,238.893 471.957,238.56 472.5,238.5 Z"/></g>
<g><path style="opacity:1" fill="#84bc5a" d="M 574.5,246.5 C 574.177,250.226 574.511,253.893 575.5,257.5C 576.298,257.043 576.631,256.376 576.5,255.5C 579.591,248.247 583.258,241.247 587.5,234.5C 589.747,233.626 592.08,233.292 594.5,233.5C 591.501,245.498 588.501,257.498 585.5,269.5C 582.918,269.975 580.918,269.308 579.5,267.5C 579.629,265.784 579.962,264.117 580.5,262.5C 581.703,261.057 582.203,259.391 582,257.5C 580.628,258.91 579.795,260.577 579.5,262.5C 578.194,264.816 576.861,267.15 575.5,269.5C 573.257,270.474 570.924,270.808 568.5,270.5C 568.907,256.611 567.907,256.278 565.5,269.5C 563.5,269.5 561.5,269.5 559.5,269.5C 559.5,268.167 559.5,266.833 559.5,265.5C 562.592,255.801 565.092,245.801 567,235.5C 569.106,233.709 571.606,233.042 574.5,233.5C 574.5,237.833 574.5,242.167 574.5,246.5 Z"/></g>
<g><path style="opacity:1" fill="#82b959" d="M 455.5,233.5 C 463.578,232.182 467.578,235.515 467.5,243.5C 465.076,243.808 462.743,243.474 460.5,242.5C 458.764,239.895 456.931,239.895 455,242.5C 454.333,243.5 454.333,244.5 455,245.5C 457.479,248.069 460.146,250.402 463,252.5C 465.082,260.744 462.249,266.577 454.5,270C 446.932,271.262 443.265,268.095 443.5,260.5C 445.924,260.192 448.257,260.526 450.5,261.5C 452.236,264.105 454.069,264.105 456,261.5C 456.798,259.741 456.631,258.074 455.5,256.5C 444.918,248.826 444.918,241.159 455.5,233.5 Z"/></g>
<g><path style="opacity:1" fill="#41683e" d="M 574.5,246.5 C 575.167,249.5 575.833,252.5 576.5,255.5C 576.631,256.376 576.298,257.043 575.5,257.5C 574.511,253.893 574.177,250.226 574.5,246.5 Z"/></g>
<g><path style="opacity:1" fill="#477041" d="M 499.5,249.5 C 499.5,250.5 499.5,251.5 499.5,252.5C 500.5,252.5 501.5,252.5 502.5,252.5C 501.432,253.434 500.099,253.768 498.5,253.5C 498.232,251.901 498.566,250.568 499.5,249.5 Z"/></g>
<g><path style="opacity:1" fill="#0c2528" d="M 547.5,254.5 C 548.461,256.265 548.795,258.265 548.5,260.5C 547.5,260.5 546.5,260.5 545.5,260.5C 545.595,258.214 546.262,256.214 547.5,254.5 Z"/></g>
<g><path style="opacity:1" fill="#487241" d="M 548.5,260.5 C 548.795,258.265 548.461,256.265 547.5,254.5C 547.461,253.244 547.961,252.244 549,251.5C 549.805,254.696 549.638,257.696 548.5,260.5 Z"/></g>
<g><path style="opacity:1" fill="#507b44" d="M 580.5,262.5 C 580.167,262.5 579.833,262.5 579.5,262.5C 579.795,260.577 580.628,258.91 582,257.5C 582.203,259.391 581.703,261.057 580.5,262.5 Z"/></g>
<g><path style="opacity:1" fill="#4b7542" d="M 489.5,261.5 C 489.425,264.206 489.092,266.873 488.5,269.5C 490.5,269.5 492.5,269.5 494.5,269.5C 492.393,270.468 490.059,270.802 487.5,270.5C 487.42,267.219 488.087,264.219 489.5,261.5 Z"/></g>
<g><path style="opacity:1" fill="#41693f" d="M 471.5,266.5 C 471.5,267.5 471.5,268.5 471.5,269.5C 473.5,269.5 475.5,269.5 477.5,269.5C 475.393,270.468 473.059,270.802 470.5,270.5C 470.232,268.901 470.566,267.568 471.5,266.5 Z"/></g>
<g><path style="opacity:1" fill="#375d3b" d="M 506.5,267.5 C 507.404,268.209 507.737,269.209 507.5,270.5C 504.941,270.802 502.607,270.468 500.5,269.5C 503.082,269.975 505.082,269.308 506.5,267.5 Z"/></g>
<g><path style="opacity:1" fill="#426a3f" d="M 511.5,267.5 C 517.074,269.453 523.074,270.12 529.5,269.5C 523.355,270.49 517.022,270.823 510.5,270.5C 510.263,269.209 510.596,268.209 511.5,267.5 Z"/></g>
<g><path style="opacity:1" fill="#497342" d="M 534.5,268.5 C 536.265,269.461 538.265,269.795 540.5,269.5C 538.307,270.797 535.973,270.797 533.5,269.5C 533.624,268.893 533.957,268.56 534.5,268.5 Z"/></g>
<g><path style="opacity:1" fill="#3c633c" d="M 559.5,265.5 C 559.5,266.833 559.5,268.167 559.5,269.5C 561.5,269.5 563.5,269.5 565.5,269.5C 563.393,270.468 561.059,270.802 558.5,270.5C 558.216,268.585 558.549,266.919 559.5,265.5 Z"/></g>
<g><path style="opacity:1" fill="#466f40" d="M 579.5,267.5 C 580.918,269.308 582.918,269.975 585.5,269.5C 583.393,270.468 581.059,270.802 578.5,270.5C 578.263,269.209 578.596,268.209 579.5,267.5 Z"/></g>
</svg>
